<mxfile host="app.diagrams.net" modified="2024-11-15T09:20:36.963Z" agent="Mozilla/5.0 (Macintosh; Intel Mac OS X 10.15; rv:132.0) Gecko/20100101 Firefox/132.0" etag="b0ANAfYksHqfdImPR8Hr" version="22.1.16" type="google">
  <diagram id="C5RBs43oDa-KdzZeNtuy" name="Page-1">
    <mxGraphModel grid="1" page="1" gridSize="10" guides="1" tooltips="1" connect="1" arrows="1" fold="1" pageScale="1" pageWidth="827" pageHeight="1169" math="0" shadow="0">
      <root>
        <mxCell id="WIyWlLk6GJQsqaUBKTNV-0" />
        <mxCell id="WIyWlLk6GJQsqaUBKTNV-1" parent="WIyWlLk6GJQsqaUBKTNV-0" />
        <mxCell id="uDHeOtieZX1u9QHMOAet-0" value="&amp;lt;&amp;lt;Boundary&amp;gt;&amp;gt;&lt;div&gt;PrelevaButton&lt;/div&gt;" style="swimlane;fontStyle=0;childLayout=stackLayout;horizontal=1;startSize=30;horizontalStack=0;resizeParent=1;resizeParentMax=0;resizeLast=0;collapsible=1;marginBottom=0;whiteSpace=wrap;html=1;fontSize=12;verticalAlign=middle;fillColor=#1ba1e2;strokeColor=#006EAF;fontColor=#ffffff;" vertex="1" parent="WIyWlLk6GJQsqaUBKTNV-1">
          <mxGeometry x="-800" y="40" width="140" height="40" as="geometry" />
        </mxCell>
        <mxCell id="uDHeOtieZX1u9QHMOAet-4" value="&amp;lt;&amp;lt;Boundary&amp;gt;&amp;gt;&lt;div&gt;LoginButton&lt;/div&gt;" style="swimlane;fontStyle=0;childLayout=stackLayout;horizontal=1;startSize=30;horizontalStack=0;resizeParent=1;resizeParentMax=0;resizeLast=0;collapsible=1;marginBottom=0;whiteSpace=wrap;html=1;fontSize=12;verticalAlign=middle;fillColor=#1ba1e2;fontColor=#ffffff;strokeColor=#006EAF;" vertex="1" parent="WIyWlLk6GJQsqaUBKTNV-1">
          <mxGeometry x="-780" y="450" width="140" height="40" as="geometry" />
        </mxCell>
        <mxCell id="uDHeOtieZX1u9QHMOAet-5" value="&amp;lt;&amp;lt;Control&amp;gt;&amp;gt;&lt;div&gt;PrelevaControl&lt;/div&gt;" style="swimlane;fontStyle=0;childLayout=stackLayout;horizontal=1;startSize=30;horizontalStack=0;resizeParent=1;resizeParentMax=0;resizeLast=0;collapsible=1;marginBottom=0;whiteSpace=wrap;html=1;fontSize=12;verticalAlign=middle;fillColor=#1ba1e2;strokeColor=#006EAF;fontColor=#ffffff;" vertex="1" parent="WIyWlLk6GJQsqaUBKTNV-1">
          <mxGeometry x="-590" y="30" width="140" height="60" as="geometry" />
        </mxCell>
        <mxCell id="uDHeOtieZX1u9QHMOAet-10" value="+ Preleva ()" style="text;html=1;align=left;verticalAlign=middle;whiteSpace=wrap;rounded=0;fillColor=#dae8fc;strokeColor=#6c8ebf;" vertex="1" parent="uDHeOtieZX1u9QHMOAet-5">
          <mxGeometry y="30" width="140" height="30" as="geometry" />
        </mxCell>
        <mxCell id="uDHeOtieZX1u9QHMOAet-6" value="&amp;lt;&amp;lt;Control&amp;gt;&amp;gt;&lt;div&gt;DepositaControl&lt;/div&gt;" style="swimlane;fontStyle=0;childLayout=stackLayout;horizontal=1;startSize=30;horizontalStack=0;resizeParent=1;resizeParentMax=0;resizeLast=0;collapsible=1;marginBottom=0;whiteSpace=wrap;html=1;fontSize=12;verticalAlign=middle;fillColor=#1ba1e2;strokeColor=#006EAF;fontColor=#ffffff;" vertex="1" parent="WIyWlLk6GJQsqaUBKTNV-1">
          <mxGeometry x="-590" y="120" width="140" height="60" as="geometry" />
        </mxCell>
        <mxCell id="uDHeOtieZX1u9QHMOAet-11" value="+ Deposita ()" style="text;html=1;align=left;verticalAlign=middle;whiteSpace=wrap;rounded=0;fillColor=#dae8fc;strokeColor=#6c8ebf;" vertex="1" parent="uDHeOtieZX1u9QHMOAet-6">
          <mxGeometry y="30" width="140" height="30" as="geometry" />
        </mxCell>
        <mxCell id="uDHeOtieZX1u9QHMOAet-9" value="" style="endArrow=none;html=1;rounded=0;exitX=1;exitY=0.5;exitDx=0;exitDy=0;entryX=0;entryY=0;entryDx=0;entryDy=0;" edge="1" parent="WIyWlLk6GJQsqaUBKTNV-1" source="uDHeOtieZX1u9QHMOAet-0" target="uDHeOtieZX1u9QHMOAet-10">
          <mxGeometry width="50" height="50" relative="1" as="geometry">
            <mxPoint x="-640" y="110" as="sourcePoint" />
            <mxPoint x="-590" y="60" as="targetPoint" />
          </mxGeometry>
        </mxCell>
        <mxCell id="uDHeOtieZX1u9QHMOAet-12" value="" style="endArrow=none;html=1;rounded=0;exitX=1;exitY=0;exitDx=0;exitDy=0;" edge="1" parent="WIyWlLk6GJQsqaUBKTNV-1" source="uDHeOtieZX1u9QHMOAet-11">
          <mxGeometry width="50" height="50" relative="1" as="geometry">
            <mxPoint x="-420" y="190" as="sourcePoint" />
            <mxPoint x="-370" y="150" as="targetPoint" />
          </mxGeometry>
        </mxCell>
        <mxCell id="uDHeOtieZX1u9QHMOAet-13" value="" style="endArrow=none;html=1;rounded=0;" edge="1" parent="WIyWlLk6GJQsqaUBKTNV-1">
          <mxGeometry width="50" height="50" relative="1" as="geometry">
            <mxPoint x="-390" y="150" as="sourcePoint" />
            <mxPoint x="-390" y="240" as="targetPoint" />
          </mxGeometry>
        </mxCell>
        <mxCell id="uDHeOtieZX1u9QHMOAet-14" value="" style="endArrow=none;html=1;rounded=0;exitX=1;exitY=0.5;exitDx=0;exitDy=0;" edge="1" parent="WIyWlLk6GJQsqaUBKTNV-1">
          <mxGeometry width="50" height="50" relative="1" as="geometry">
            <mxPoint x="-450" y="240" as="sourcePoint" />
            <mxPoint x="-390" y="240" as="targetPoint" />
          </mxGeometry>
        </mxCell>
        <mxCell id="uDHeOtieZX1u9QHMOAet-15" value="" style="endArrow=none;html=1;rounded=0;exitX=1;exitY=0;exitDx=0;exitDy=0;" edge="1" parent="WIyWlLk6GJQsqaUBKTNV-1" source="uDHeOtieZX1u9QHMOAet-10">
          <mxGeometry width="50" height="50" relative="1" as="geometry">
            <mxPoint x="-410" y="80" as="sourcePoint" />
            <mxPoint x="-390" y="60" as="targetPoint" />
          </mxGeometry>
        </mxCell>
        <mxCell id="uDHeOtieZX1u9QHMOAet-16" value="" style="endArrow=none;html=1;rounded=0;" edge="1" parent="WIyWlLk6GJQsqaUBKTNV-1">
          <mxGeometry width="50" height="50" relative="1" as="geometry">
            <mxPoint x="-390" y="150" as="sourcePoint" />
            <mxPoint x="-390" y="60" as="targetPoint" />
          </mxGeometry>
        </mxCell>
        <mxCell id="uDHeOtieZX1u9QHMOAet-17" value="" style="endArrow=none;html=1;rounded=0;" edge="1" parent="WIyWlLk6GJQsqaUBKTNV-1">
          <mxGeometry width="50" height="50" relative="1" as="geometry">
            <mxPoint x="-370" y="150" as="sourcePoint" />
            <mxPoint x="-290" y="150" as="targetPoint" />
          </mxGeometry>
        </mxCell>
        <mxCell id="uDHeOtieZX1u9QHMOAet-18" value="Saldo" style="swimlane;fontStyle=0;childLayout=stackLayout;horizontal=1;startSize=30;horizontalStack=0;resizeParent=1;resizeParentMax=0;resizeLast=0;collapsible=1;marginBottom=0;whiteSpace=wrap;html=1;fontSize=12;verticalAlign=middle;fillColor=#1ba1e2;strokeColor=#006EAF;fontColor=#ffffff;" vertex="1" parent="WIyWlLk6GJQsqaUBKTNV-1">
          <mxGeometry x="-340" y="120" width="140" height="60" as="geometry" />
        </mxCell>
        <mxCell id="uDHeOtieZX1u9QHMOAet-19" value="Saldo" style="text;html=1;align=left;verticalAlign=middle;whiteSpace=wrap;rounded=0;fillColor=#dae8fc;strokeColor=#6c8ebf;" vertex="1" parent="uDHeOtieZX1u9QHMOAet-18">
          <mxGeometry y="30" width="140" height="30" as="geometry" />
        </mxCell>
        <mxCell id="uDHeOtieZX1u9QHMOAet-22" value="Conto&lt;div&gt;&lt;br&gt;&lt;/div&gt;" style="swimlane;fontStyle=0;childLayout=stackLayout;horizontal=1;startSize=30;horizontalStack=0;resizeParent=1;resizeParentMax=0;resizeLast=0;collapsible=1;marginBottom=0;whiteSpace=wrap;html=1;fontSize=12;verticalAlign=middle;fillColor=#1ba1e2;strokeColor=#006EAF;fontColor=#ffffff;" vertex="1" parent="WIyWlLk6GJQsqaUBKTNV-1">
          <mxGeometry x="-150" y="90" width="140" height="120" as="geometry" />
        </mxCell>
        <mxCell id="uDHeOtieZX1u9QHMOAet-28" value="Indirizzo di fatturazione" style="text;html=1;align=left;verticalAlign=middle;whiteSpace=wrap;rounded=0;fillColor=#dae8fc;strokeColor=#6c8ebf;" vertex="1" parent="uDHeOtieZX1u9QHMOAet-22">
          <mxGeometry y="30" width="140" height="30" as="geometry" />
        </mxCell>
        <mxCell id="uDHeOtieZX1u9QHMOAet-34" value="Numero Conto" style="text;html=1;align=left;verticalAlign=middle;whiteSpace=wrap;rounded=0;fillColor=#dae8fc;strokeColor=#6c8ebf;" vertex="1" parent="uDHeOtieZX1u9QHMOAet-22">
          <mxGeometry y="60" width="140" height="30" as="geometry" />
        </mxCell>
        <mxCell id="uDHeOtieZX1u9QHMOAet-35" value="Data Creazione" style="text;html=1;align=left;verticalAlign=middle;whiteSpace=wrap;rounded=0;fillColor=#dae8fc;strokeColor=#6c8ebf;" vertex="1" parent="uDHeOtieZX1u9QHMOAet-22">
          <mxGeometry y="90" width="140" height="30" as="geometry" />
        </mxCell>
        <mxCell id="uDHeOtieZX1u9QHMOAet-31" value="" style="endArrow=none;html=1;rounded=0;exitX=1;exitY=0;exitDx=0;exitDy=0;" edge="1" parent="WIyWlLk6GJQsqaUBKTNV-1" source="uDHeOtieZX1u9QHMOAet-19">
          <mxGeometry width="50" height="50" relative="1" as="geometry">
            <mxPoint x="-190" y="160" as="sourcePoint" />
            <mxPoint x="-150" y="150" as="targetPoint" />
          </mxGeometry>
        </mxCell>
        <mxCell id="uDHeOtieZX1u9QHMOAet-36" value="&amp;lt;&amp;lt;Boundary&amp;gt;&amp;gt;&lt;div&gt;LogOutButton&lt;/div&gt;" style="swimlane;fontStyle=0;childLayout=stackLayout;horizontal=1;startSize=30;horizontalStack=0;resizeParent=1;resizeParentMax=0;resizeLast=0;collapsible=1;marginBottom=0;whiteSpace=wrap;html=1;fontSize=12;verticalAlign=middle;fillColor=#1ba1e2;fontColor=#ffffff;strokeColor=#006EAF;" vertex="1" parent="WIyWlLk6GJQsqaUBKTNV-1">
          <mxGeometry x="-780" y="650" width="140" height="40" as="geometry" />
        </mxCell>
        <mxCell id="uDHeOtieZX1u9QHMOAet-37" value="&amp;lt;&amp;lt;Boundary&amp;gt;&amp;gt;&lt;div&gt;DepositaButton&lt;/div&gt;" style="swimlane;fontStyle=0;childLayout=stackLayout;horizontal=1;startSize=30;horizontalStack=0;resizeParent=1;resizeParentMax=0;resizeLast=0;collapsible=1;marginBottom=0;whiteSpace=wrap;html=1;fontSize=12;verticalAlign=middle;fillColor=#1ba1e2;strokeColor=#006EAF;fontColor=#ffffff;" vertex="1" parent="WIyWlLk6GJQsqaUBKTNV-1">
          <mxGeometry x="-800" y="130" width="140" height="40" as="geometry" />
        </mxCell>
        <mxCell id="uDHeOtieZX1u9QHMOAet-39" value="&amp;lt;&amp;lt;Boundary&amp;gt;&amp;gt;&lt;div&gt;LoginForm&lt;/div&gt;" style="swimlane;fontStyle=0;childLayout=stackLayout;horizontal=1;startSize=30;horizontalStack=0;resizeParent=1;resizeParentMax=0;resizeLast=0;collapsible=1;marginBottom=0;whiteSpace=wrap;html=1;fontSize=12;verticalAlign=middle;fillColor=#1ba1e2;fontColor=#ffffff;strokeColor=#006EAF;" vertex="1" parent="WIyWlLk6GJQsqaUBKTNV-1">
          <mxGeometry x="-780" y="550" width="140" height="40" as="geometry" />
        </mxCell>
        <mxCell id="uDHeOtieZX1u9QHMOAet-40" value="&amp;lt;&amp;lt;Control&amp;gt;&amp;gt;&lt;div&gt;LoginControl&lt;/div&gt;" style="swimlane;fontStyle=0;childLayout=stackLayout;horizontal=1;startSize=30;horizontalStack=0;resizeParent=1;resizeParentMax=0;resizeLast=0;collapsible=1;marginBottom=0;whiteSpace=wrap;html=1;fontSize=12;verticalAlign=middle;fillColor=#1ba1e2;fontColor=#ffffff;strokeColor=#006EAF;" vertex="1" parent="WIyWlLk6GJQsqaUBKTNV-1">
          <mxGeometry x="-570" y="490" width="140" height="60" as="geometry" />
        </mxCell>
        <mxCell id="uDHeOtieZX1u9QHMOAet-41" value="+ Login ()" style="text;html=1;align=left;verticalAlign=middle;whiteSpace=wrap;rounded=0;fillColor=#dae8fc;strokeColor=#6c8ebf;" vertex="1" parent="uDHeOtieZX1u9QHMOAet-40">
          <mxGeometry y="30" width="140" height="30" as="geometry" />
        </mxCell>
        <mxCell id="uDHeOtieZX1u9QHMOAet-43" value="&amp;lt;&amp;lt;Control&amp;gt;&amp;gt;&lt;div&gt;LogoutControl&lt;/div&gt;" style="swimlane;fontStyle=0;childLayout=stackLayout;horizontal=1;startSize=30;horizontalStack=0;resizeParent=1;resizeParentMax=0;resizeLast=0;collapsible=1;marginBottom=0;whiteSpace=wrap;html=1;fontSize=12;verticalAlign=middle;fillColor=#1ba1e2;fontColor=#ffffff;strokeColor=#006EAF;" vertex="1" parent="WIyWlLk6GJQsqaUBKTNV-1">
          <mxGeometry x="-580" y="640" width="140" height="60" as="geometry" />
        </mxCell>
        <mxCell id="uDHeOtieZX1u9QHMOAet-44" value="+ Logout ()" style="text;html=1;align=left;verticalAlign=middle;whiteSpace=wrap;rounded=0;fillColor=#dae8fc;strokeColor=#6c8ebf;" vertex="1" parent="uDHeOtieZX1u9QHMOAet-43">
          <mxGeometry y="30" width="140" height="30" as="geometry" />
        </mxCell>
        <mxCell id="uDHeOtieZX1u9QHMOAet-52" value="" style="endArrow=none;html=1;rounded=0;exitX=1;exitY=0.5;exitDx=0;exitDy=0;" edge="1" parent="WIyWlLk6GJQsqaUBKTNV-1" source="uDHeOtieZX1u9QHMOAet-39">
          <mxGeometry width="50" height="50" relative="1" as="geometry">
            <mxPoint x="-600" y="610" as="sourcePoint" />
            <mxPoint x="-600" y="570" as="targetPoint" />
          </mxGeometry>
        </mxCell>
        <mxCell id="uDHeOtieZX1u9QHMOAet-53" value="" style="endArrow=none;html=1;rounded=0;" edge="1" parent="WIyWlLk6GJQsqaUBKTNV-1">
          <mxGeometry width="50" height="50" relative="1" as="geometry">
            <mxPoint x="-600" y="570" as="sourcePoint" />
            <mxPoint x="-600" y="470" as="targetPoint" />
          </mxGeometry>
        </mxCell>
        <mxCell id="uDHeOtieZX1u9QHMOAet-55" value="" style="endArrow=none;html=1;rounded=0;exitX=1;exitY=0;exitDx=0;exitDy=0;" edge="1" parent="WIyWlLk6GJQsqaUBKTNV-1" source="uDHeOtieZX1u9QHMOAet-41">
          <mxGeometry width="50" height="50" relative="1" as="geometry">
            <mxPoint x="-360" y="590" as="sourcePoint" />
            <mxPoint x="-370" y="520" as="targetPoint" />
          </mxGeometry>
        </mxCell>
        <mxCell id="uDHeOtieZX1u9QHMOAet-56" value="" style="endArrow=none;html=1;rounded=0;exitX=1;exitY=0.5;exitDx=0;exitDy=0;" edge="1" parent="WIyWlLk6GJQsqaUBKTNV-1" source="uDHeOtieZX1u9QHMOAet-43">
          <mxGeometry width="50" height="50" relative="1" as="geometry">
            <mxPoint x="-400" y="700" as="sourcePoint" />
            <mxPoint x="-370" y="670" as="targetPoint" />
          </mxGeometry>
        </mxCell>
        <mxCell id="uDHeOtieZX1u9QHMOAet-57" value="" style="endArrow=none;html=1;rounded=0;" edge="1" parent="WIyWlLk6GJQsqaUBKTNV-1">
          <mxGeometry width="50" height="50" relative="1" as="geometry">
            <mxPoint x="-370" y="670" as="sourcePoint" />
            <mxPoint x="-370" y="520" as="targetPoint" />
          </mxGeometry>
        </mxCell>
        <mxCell id="uDHeOtieZX1u9QHMOAet-58" value="" style="endArrow=none;html=1;rounded=0;" edge="1" parent="WIyWlLk6GJQsqaUBKTNV-1">
          <mxGeometry width="50" height="50" relative="1" as="geometry">
            <mxPoint x="-370" y="590" as="sourcePoint" />
            <mxPoint x="-340" y="590" as="targetPoint" />
          </mxGeometry>
        </mxCell>
        <mxCell id="uDHeOtieZX1u9QHMOAet-63" value="" style="endArrow=none;html=1;rounded=0;" edge="1" parent="WIyWlLk6GJQsqaUBKTNV-1">
          <mxGeometry width="50" height="50" relative="1" as="geometry">
            <mxPoint x="-340" y="590" as="sourcePoint" />
            <mxPoint x="-320" y="590" as="targetPoint" />
          </mxGeometry>
        </mxCell>
        <mxCell id="uDHeOtieZX1u9QHMOAet-64" value="" style="endArrow=none;html=1;rounded=0;exitX=1;exitY=0.5;exitDx=0;exitDy=0;entryX=0;entryY=0;entryDx=0;entryDy=0;" edge="1" parent="WIyWlLk6GJQsqaUBKTNV-1" source="uDHeOtieZX1u9QHMOAet-36" target="uDHeOtieZX1u9QHMOAet-44">
          <mxGeometry width="50" height="50" relative="1" as="geometry">
            <mxPoint x="-590" y="810" as="sourcePoint" />
            <mxPoint x="-540" y="760" as="targetPoint" />
          </mxGeometry>
        </mxCell>
        <mxCell id="uDHeOtieZX1u9QHMOAet-65" value="&amp;lt;&amp;lt;Boundary&amp;gt;&amp;gt;&lt;div&gt;VisualizzaAreaUtenteButton&lt;/div&gt;" style="swimlane;fontStyle=0;childLayout=stackLayout;horizontal=1;startSize=30;horizontalStack=0;resizeParent=1;resizeParentMax=0;resizeLast=0;collapsible=1;marginBottom=0;whiteSpace=wrap;html=1;fontSize=12;verticalAlign=middle;fillColor=#1ba1e2;fontColor=#ffffff;strokeColor=#006EAF;" vertex="1" parent="WIyWlLk6GJQsqaUBKTNV-1">
          <mxGeometry x="-790" y="1026" width="140" height="42.5" as="geometry" />
        </mxCell>
        <mxCell id="uDHeOtieZX1u9QHMOAet-66" value="&amp;lt;&amp;lt;Boundary&amp;gt;&amp;gt;&lt;div&gt;CancellaAccountButton&lt;/div&gt;" style="swimlane;fontStyle=0;childLayout=stackLayout;horizontal=1;startSize=30;horizontalStack=0;resizeParent=1;resizeParentMax=0;resizeLast=0;collapsible=1;marginBottom=0;whiteSpace=wrap;html=1;fontSize=12;verticalAlign=middle;fillColor=#1ba1e2;fontColor=#ffffff;strokeColor=#006EAF;" vertex="1" parent="WIyWlLk6GJQsqaUBKTNV-1">
          <mxGeometry x="-790" y="1214.75" width="140" height="37.5" as="geometry" />
        </mxCell>
        <mxCell id="uDHeOtieZX1u9QHMOAet-67" value="&amp;lt;&amp;lt;Boundary&amp;gt;&amp;gt;&lt;div&gt;ModificaDatiButton&lt;/div&gt;" style="swimlane;fontStyle=0;childLayout=stackLayout;horizontal=1;startSize=30;horizontalStack=0;resizeParent=1;resizeParentMax=0;resizeLast=0;collapsible=1;marginBottom=0;whiteSpace=wrap;html=1;fontSize=12;verticalAlign=middle;fillColor=#1ba1e2;fontColor=#ffffff;strokeColor=#006EAF;" vertex="1" parent="WIyWlLk6GJQsqaUBKTNV-1">
          <mxGeometry x="-790" y="1117.25" width="140" height="42.5" as="geometry" />
        </mxCell>
        <mxCell id="uDHeOtieZX1u9QHMOAet-68" value="&amp;lt;&amp;lt;Control&amp;gt;&amp;gt;&lt;div&gt;VisualizzaAreaUtente&lt;span style=&quot;background-color: initial;&quot;&gt;Control&lt;/span&gt;&lt;/div&gt;" style="swimlane;fontStyle=0;childLayout=stackLayout;horizontal=1;startSize=30;horizontalStack=0;resizeParent=1;resizeParentMax=0;resizeLast=0;collapsible=1;marginBottom=0;whiteSpace=wrap;html=1;fontSize=12;verticalAlign=middle;fillColor=#1ba1e2;fontColor=#ffffff;strokeColor=#006EAF;" vertex="1" parent="WIyWlLk6GJQsqaUBKTNV-1">
          <mxGeometry x="-580" y="1018.5" width="140" height="60" as="geometry" />
        </mxCell>
        <mxCell id="uDHeOtieZX1u9QHMOAet-205" value="+VisualizzaAreaUtente()" style="text;html=1;align=left;verticalAlign=middle;whiteSpace=wrap;rounded=0;fillColor=#dae8fc;strokeColor=#6c8ebf;" vertex="1" parent="uDHeOtieZX1u9QHMOAet-68">
          <mxGeometry y="30" width="140" height="30" as="geometry" />
        </mxCell>
        <mxCell id="uDHeOtieZX1u9QHMOAet-69" value="&amp;lt;&amp;lt;Control&amp;gt;&amp;gt;&lt;div&gt;CancellaAccount&lt;span style=&quot;background-color: initial;&quot;&gt;Control&lt;/span&gt;&lt;/div&gt;" style="swimlane;fontStyle=0;childLayout=stackLayout;horizontal=1;startSize=30;horizontalStack=0;resizeParent=1;resizeParentMax=0;resizeLast=0;collapsible=1;marginBottom=0;whiteSpace=wrap;html=1;fontSize=12;verticalAlign=middle;fillColor=#1ba1e2;fontColor=#ffffff;strokeColor=#006EAF;" vertex="1" parent="WIyWlLk6GJQsqaUBKTNV-1">
          <mxGeometry x="-580" y="1203.5" width="140" height="60" as="geometry" />
        </mxCell>
        <mxCell id="uDHeOtieZX1u9QHMOAet-208" value="+CancellaAccount()" style="text;html=1;align=left;verticalAlign=middle;whiteSpace=wrap;rounded=0;fillColor=#dae8fc;strokeColor=#6c8ebf;" vertex="1" parent="uDHeOtieZX1u9QHMOAet-69">
          <mxGeometry y="30" width="140" height="30" as="geometry" />
        </mxCell>
        <mxCell id="uDHeOtieZX1u9QHMOAet-70" value="&amp;lt;&amp;lt;Control&amp;gt;&amp;gt;&lt;div&gt;ModificaDati&lt;span style=&quot;background-color: initial;&quot;&gt;Control&lt;/span&gt;&lt;/div&gt;" style="swimlane;fontStyle=0;childLayout=stackLayout;horizontal=1;startSize=30;horizontalStack=0;resizeParent=1;resizeParentMax=0;resizeLast=0;collapsible=1;marginBottom=0;whiteSpace=wrap;html=1;fontSize=12;verticalAlign=middle;fillColor=#1ba1e2;fontColor=#ffffff;strokeColor=#006EAF;" vertex="1" parent="WIyWlLk6GJQsqaUBKTNV-1">
          <mxGeometry x="-580" y="1108.5" width="140" height="60" as="geometry" />
        </mxCell>
        <mxCell id="uDHeOtieZX1u9QHMOAet-206" value="+ModificaDati()" style="text;html=1;align=left;verticalAlign=middle;whiteSpace=wrap;rounded=0;fillColor=#dae8fc;strokeColor=#6c8ebf;" vertex="1" parent="uDHeOtieZX1u9QHMOAet-70">
          <mxGeometry y="30" width="140" height="30" as="geometry" />
        </mxCell>
        <mxCell id="uDHeOtieZX1u9QHMOAet-71" value="" style="endArrow=none;html=1;rounded=0;exitX=1;exitY=0.5;exitDx=0;exitDy=0;entryX=0;entryY=0.5;entryDx=0;entryDy=0;" edge="1" parent="WIyWlLk6GJQsqaUBKTNV-1" source="uDHeOtieZX1u9QHMOAet-65" target="uDHeOtieZX1u9QHMOAet-68">
          <mxGeometry width="50" height="50" relative="1" as="geometry">
            <mxPoint x="-640" y="1088.5" as="sourcePoint" />
            <mxPoint x="-590" y="1038.5" as="targetPoint" />
          </mxGeometry>
        </mxCell>
        <mxCell id="uDHeOtieZX1u9QHMOAet-72" value="" style="endArrow=none;html=1;rounded=0;exitX=1;exitY=0.5;exitDx=0;exitDy=0;entryX=0;entryY=0.5;entryDx=0;entryDy=0;" edge="1" parent="WIyWlLk6GJQsqaUBKTNV-1" source="uDHeOtieZX1u9QHMOAet-67" target="uDHeOtieZX1u9QHMOAet-70">
          <mxGeometry width="50" height="50" relative="1" as="geometry">
            <mxPoint x="-630" y="1153.5" as="sourcePoint" />
            <mxPoint x="-580" y="1103.5" as="targetPoint" />
          </mxGeometry>
        </mxCell>
        <mxCell id="uDHeOtieZX1u9QHMOAet-73" value="" style="endArrow=none;html=1;rounded=0;exitX=1;exitY=0.5;exitDx=0;exitDy=0;entryX=0;entryY=0.5;entryDx=0;entryDy=0;" edge="1" parent="WIyWlLk6GJQsqaUBKTNV-1" source="uDHeOtieZX1u9QHMOAet-66" target="uDHeOtieZX1u9QHMOAet-69">
          <mxGeometry width="50" height="50" relative="1" as="geometry">
            <mxPoint x="-640" y="1248.5" as="sourcePoint" />
            <mxPoint x="-590" y="1198.5" as="targetPoint" />
          </mxGeometry>
        </mxCell>
        <mxCell id="uDHeOtieZX1u9QHMOAet-80" value="" style="endArrow=none;html=1;rounded=0;entryX=0;entryY=0;entryDx=0;entryDy=0;" edge="1" parent="WIyWlLk6GJQsqaUBKTNV-1">
          <mxGeometry width="50" height="50" relative="1" as="geometry">
            <mxPoint x="-330" y="1018.5" as="sourcePoint" />
            <mxPoint x="-270" y="1018.5" as="targetPoint" />
          </mxGeometry>
        </mxCell>
        <mxCell id="uDHeOtieZX1u9QHMOAet-81" value="" style="endArrow=none;html=1;rounded=0;entryX=0;entryY=0;entryDx=0;entryDy=0;" edge="1" parent="WIyWlLk6GJQsqaUBKTNV-1">
          <mxGeometry width="50" height="50" relative="1" as="geometry">
            <mxPoint x="-330" y="1138.5" as="sourcePoint" />
            <mxPoint x="-270" y="1138.5" as="targetPoint" />
            <Array as="points">
              <mxPoint x="-310" y="1138.5" />
            </Array>
          </mxGeometry>
        </mxCell>
        <mxCell id="uDHeOtieZX1u9QHMOAet-83" value="" style="endArrow=none;html=1;rounded=0;" edge="1" parent="WIyWlLk6GJQsqaUBKTNV-1">
          <mxGeometry width="50" height="50" relative="1" as="geometry">
            <mxPoint x="-330" y="1341" as="sourcePoint" />
            <mxPoint x="-330" y="1020" as="targetPoint" />
          </mxGeometry>
        </mxCell>
        <mxCell id="uDHeOtieZX1u9QHMOAet-84" value="" style="endArrow=none;html=1;rounded=0;" edge="1" parent="WIyWlLk6GJQsqaUBKTNV-1">
          <mxGeometry width="50" height="50" relative="1" as="geometry">
            <mxPoint x="-360" y="1138.5" as="sourcePoint" />
            <mxPoint x="-330" y="1138.3" as="targetPoint" />
          </mxGeometry>
        </mxCell>
        <mxCell id="uDHeOtieZX1u9QHMOAet-85" value="" style="endArrow=none;html=1;rounded=0;exitX=1;exitY=0.5;exitDx=0;exitDy=0;" edge="1" parent="WIyWlLk6GJQsqaUBKTNV-1" source="uDHeOtieZX1u9QHMOAet-68">
          <mxGeometry width="50" height="50" relative="1" as="geometry">
            <mxPoint x="-400" y="1088.5" as="sourcePoint" />
            <mxPoint x="-360" y="1048.5" as="targetPoint" />
          </mxGeometry>
        </mxCell>
        <mxCell id="uDHeOtieZX1u9QHMOAet-86" value="" style="endArrow=none;html=1;rounded=0;exitX=1;exitY=0.5;exitDx=0;exitDy=0;" edge="1" parent="WIyWlLk6GJQsqaUBKTNV-1" source="uDHeOtieZX1u9QHMOAet-69">
          <mxGeometry width="50" height="50" relative="1" as="geometry">
            <mxPoint x="-410" y="1258.5" as="sourcePoint" />
            <mxPoint x="-360" y="1233.5" as="targetPoint" />
          </mxGeometry>
        </mxCell>
        <mxCell id="uDHeOtieZX1u9QHMOAet-87" value="" style="endArrow=none;html=1;rounded=0;exitX=1;exitY=0.5;exitDx=0;exitDy=0;" edge="1" parent="WIyWlLk6GJQsqaUBKTNV-1" source="uDHeOtieZX1u9QHMOAet-70">
          <mxGeometry width="50" height="50" relative="1" as="geometry">
            <mxPoint x="-410" y="1178.5" as="sourcePoint" />
            <mxPoint x="-360" y="1138.5" as="targetPoint" />
          </mxGeometry>
        </mxCell>
        <mxCell id="uDHeOtieZX1u9QHMOAet-88" value="" style="endArrow=none;html=1;rounded=0;" edge="1" parent="WIyWlLk6GJQsqaUBKTNV-1">
          <mxGeometry width="50" height="50" relative="1" as="geometry">
            <mxPoint x="-360" y="1048.5" as="sourcePoint" />
            <mxPoint x="-360.4" y="1233.5" as="targetPoint" />
          </mxGeometry>
        </mxCell>
        <mxCell id="uDHeOtieZX1u9QHMOAet-89" value="&amp;lt;&amp;lt;Boundary&amp;gt;&amp;gt;&lt;div&gt;RegistrazioneButton&lt;/div&gt;" style="swimlane;fontStyle=0;childLayout=stackLayout;horizontal=1;startSize=30;horizontalStack=0;resizeParent=1;resizeParentMax=0;resizeLast=0;collapsible=1;marginBottom=0;whiteSpace=wrap;html=1;fontSize=12;verticalAlign=middle;fillColor=#1ba1e2;strokeColor=#006EAF;fillStyle=auto;fontColor=#ffffff;" vertex="1" parent="WIyWlLk6GJQsqaUBKTNV-1">
          <mxGeometry x="-788.5" y="1550" width="140" height="40" as="geometry" />
        </mxCell>
        <mxCell id="uDHeOtieZX1u9QHMOAet-91" value="&amp;lt;&amp;lt;Boundary&amp;gt;&amp;gt;&lt;div&gt;ConfermaRegistrazioneButton&lt;/div&gt;" style="swimlane;fontStyle=0;childLayout=stackLayout;horizontal=1;startSize=30;horizontalStack=0;resizeParent=1;resizeParentMax=0;resizeLast=0;collapsible=1;marginBottom=0;whiteSpace=wrap;html=1;fontSize=12;verticalAlign=middle;fillColor=#1ba1e2;strokeColor=#006EAF;fillStyle=auto;fontColor=#ffffff;" vertex="1" parent="WIyWlLk6GJQsqaUBKTNV-1">
          <mxGeometry x="-790" y="1620" width="140" height="40" as="geometry" />
        </mxCell>
        <mxCell id="uDHeOtieZX1u9QHMOAet-92" value="&amp;lt;&amp;lt;Boundary&amp;gt;&amp;gt;&lt;div&gt;CreaGestoreButton&lt;/div&gt;" style="swimlane;fontStyle=0;childLayout=stackLayout;horizontal=1;startSize=30;horizontalStack=0;resizeParent=1;resizeParentMax=0;resizeLast=0;collapsible=1;marginBottom=0;whiteSpace=wrap;html=1;fontSize=12;verticalAlign=middle;fillColor=#1ba1e2;strokeColor=#006EAF;fillStyle=auto;fontColor=#ffffff;" vertex="1" parent="WIyWlLk6GJQsqaUBKTNV-1">
          <mxGeometry x="-788.5" y="1680" width="140" height="40" as="geometry" />
        </mxCell>
        <mxCell id="uDHeOtieZX1u9QHMOAet-93" value="&amp;lt;&amp;lt;Boundary&amp;gt;&amp;gt;&lt;div&gt;RegistrazioneGestoreForm&lt;/div&gt;" style="swimlane;fontStyle=0;childLayout=stackLayout;horizontal=1;startSize=30;horizontalStack=0;resizeParent=1;resizeParentMax=0;resizeLast=0;collapsible=1;marginBottom=0;whiteSpace=wrap;html=1;fontSize=12;verticalAlign=middle;fillColor=#1ba1e2;strokeColor=#006EAF;fillStyle=auto;fontColor=#ffffff;" vertex="1" parent="WIyWlLk6GJQsqaUBKTNV-1">
          <mxGeometry x="-788.5" y="1750" width="140" height="40" as="geometry" />
        </mxCell>
        <mxCell id="uDHeOtieZX1u9QHMOAet-94" value="&amp;lt;&amp;lt;Boundary&amp;gt;&amp;gt;&lt;div&gt;RegistrazioneUtenteForm&lt;/div&gt;" style="swimlane;fontStyle=0;childLayout=stackLayout;horizontal=1;startSize=30;horizontalStack=0;resizeParent=1;resizeParentMax=0;resizeLast=0;collapsible=1;marginBottom=0;whiteSpace=wrap;html=1;fontSize=12;verticalAlign=middle;fillColor=#1ba1e2;strokeColor=#006EAF;fillStyle=auto;fontColor=#ffffff;" vertex="1" parent="WIyWlLk6GJQsqaUBKTNV-1">
          <mxGeometry x="-788.5" y="1810" width="140" height="40" as="geometry" />
        </mxCell>
        <mxCell id="uDHeOtieZX1u9QHMOAet-97" value="Utente Registrato" style="swimlane;fontStyle=0;childLayout=stackLayout;horizontal=1;startSize=30;horizontalStack=0;resizeParent=1;resizeParentMax=0;resizeLast=0;collapsible=1;marginBottom=0;whiteSpace=wrap;html=1;fontSize=12;verticalAlign=middle;fillColor=#1ba1e2;strokeColor=#006EAF;fontColor=#ffffff;" vertex="1" parent="WIyWlLk6GJQsqaUBKTNV-1">
          <mxGeometry x="-88.5" y="1590" width="140" height="210" as="geometry" />
        </mxCell>
        <mxCell id="uDHeOtieZX1u9QHMOAet-98" value="email" style="text;html=1;align=left;verticalAlign=middle;whiteSpace=wrap;rounded=0;fillColor=#dae8fc;strokeColor=#6c8ebf;" vertex="1" parent="uDHeOtieZX1u9QHMOAet-97">
          <mxGeometry y="30" width="140" height="30" as="geometry" />
        </mxCell>
        <mxCell id="uDHeOtieZX1u9QHMOAet-117" value="password" style="text;html=1;align=left;verticalAlign=middle;whiteSpace=wrap;rounded=0;fillColor=#dae8fc;strokeColor=#6c8ebf;" vertex="1" parent="uDHeOtieZX1u9QHMOAet-97">
          <mxGeometry y="60" width="140" height="30" as="geometry" />
        </mxCell>
        <mxCell id="uDHeOtieZX1u9QHMOAet-118" value="provincia" style="text;html=1;align=left;verticalAlign=middle;whiteSpace=wrap;rounded=0;fillColor=#dae8fc;strokeColor=#6c8ebf;" vertex="1" parent="uDHeOtieZX1u9QHMOAet-97">
          <mxGeometry y="90" width="140" height="30" as="geometry" />
        </mxCell>
        <mxCell id="uDHeOtieZX1u9QHMOAet-119" value="città" style="text;html=1;align=left;verticalAlign=middle;whiteSpace=wrap;rounded=0;fillColor=#dae8fc;strokeColor=#6c8ebf;" vertex="1" parent="uDHeOtieZX1u9QHMOAet-97">
          <mxGeometry y="120" width="140" height="30" as="geometry" />
        </mxCell>
        <mxCell id="uDHeOtieZX1u9QHMOAet-120" value="via" style="text;html=1;align=left;verticalAlign=middle;whiteSpace=wrap;rounded=0;fillColor=#dae8fc;strokeColor=#6c8ebf;" vertex="1" parent="uDHeOtieZX1u9QHMOAet-97">
          <mxGeometry y="150" width="140" height="30" as="geometry" />
        </mxCell>
        <mxCell id="uDHeOtieZX1u9QHMOAet-121" value="Recapito Telefonico" style="text;html=1;align=left;verticalAlign=middle;whiteSpace=wrap;rounded=0;fillColor=#dae8fc;strokeColor=#6c8ebf;" vertex="1" parent="uDHeOtieZX1u9QHMOAet-97">
          <mxGeometry y="180" width="140" height="30" as="geometry" />
        </mxCell>
        <mxCell id="uDHeOtieZX1u9QHMOAet-101" value="Gestore" style="swimlane;fontStyle=0;childLayout=stackLayout;horizontal=1;startSize=30;horizontalStack=0;resizeParent=1;resizeParentMax=0;resizeLast=0;collapsible=1;marginBottom=0;whiteSpace=wrap;html=1;fontSize=12;verticalAlign=middle;fillColor=#1ba1e2;strokeColor=#006EAF;fontColor=#ffffff;" vertex="1" parent="WIyWlLk6GJQsqaUBKTNV-1">
          <mxGeometry x="-358.5" y="1740" width="140" height="60" as="geometry" />
        </mxCell>
        <mxCell id="uDHeOtieZX1u9QHMOAet-102" value="Saldo" style="text;html=1;align=left;verticalAlign=middle;whiteSpace=wrap;rounded=0;fillColor=#dae8fc;strokeColor=#6c8ebf;" vertex="1" parent="uDHeOtieZX1u9QHMOAet-101">
          <mxGeometry y="30" width="140" height="30" as="geometry" />
        </mxCell>
        <mxCell id="uDHeOtieZX1u9QHMOAet-104" value="" style="endArrow=none;html=1;rounded=0;" edge="1" parent="WIyWlLk6GJQsqaUBKTNV-1">
          <mxGeometry width="50" height="50" relative="1" as="geometry">
            <mxPoint x="-398.5" y="1770" as="sourcePoint" />
            <mxPoint x="-358.5" y="1769.5" as="targetPoint" />
          </mxGeometry>
        </mxCell>
        <mxCell id="uDHeOtieZX1u9QHMOAet-105" value="" style="endArrow=none;html=1;rounded=0;" edge="1" parent="WIyWlLk6GJQsqaUBKTNV-1">
          <mxGeometry width="50" height="50" relative="1" as="geometry">
            <mxPoint x="-398.5" y="1770" as="sourcePoint" />
            <mxPoint x="-398.5" y="1650" as="targetPoint" />
          </mxGeometry>
        </mxCell>
        <mxCell id="uDHeOtieZX1u9QHMOAet-106" value="" style="endArrow=none;html=1;rounded=0;exitX=1;exitY=0.5;exitDx=0;exitDy=0;" edge="1" parent="WIyWlLk6GJQsqaUBKTNV-1">
          <mxGeometry width="50" height="50" relative="1" as="geometry">
            <mxPoint x="-428.5" y="1700" as="sourcePoint" />
            <mxPoint x="-398.5" y="1700" as="targetPoint" />
          </mxGeometry>
        </mxCell>
        <mxCell id="uDHeOtieZX1u9QHMOAet-108" value="" style="endArrow=none;html=1;rounded=0;exitX=1;exitY=0.5;exitDx=0;exitDy=0;" edge="1" parent="WIyWlLk6GJQsqaUBKTNV-1" source="uDHeOtieZX1u9QHMOAet-91">
          <mxGeometry width="50" height="50" relative="1" as="geometry">
            <mxPoint x="-598.5" y="1640" as="sourcePoint" />
            <mxPoint x="-598.5" y="1640" as="targetPoint" />
          </mxGeometry>
        </mxCell>
        <mxCell id="uDHeOtieZX1u9QHMOAet-109" value="" style="endArrow=none;html=1;rounded=0;exitX=1;exitY=0.5;exitDx=0;exitDy=0;" edge="1" parent="WIyWlLk6GJQsqaUBKTNV-1" source="uDHeOtieZX1u9QHMOAet-92">
          <mxGeometry width="50" height="50" relative="1" as="geometry">
            <mxPoint x="-628.5" y="1720" as="sourcePoint" />
            <mxPoint x="-598.5" y="1700" as="targetPoint" />
          </mxGeometry>
        </mxCell>
        <mxCell id="uDHeOtieZX1u9QHMOAet-110" value="" style="endArrow=none;html=1;rounded=0;" edge="1" parent="WIyWlLk6GJQsqaUBKTNV-1">
          <mxGeometry width="50" height="50" relative="1" as="geometry">
            <mxPoint x="-598.5" y="1570" as="sourcePoint" />
            <mxPoint x="-598.5" y="1830" as="targetPoint" />
          </mxGeometry>
        </mxCell>
        <mxCell id="uDHeOtieZX1u9QHMOAet-111" value="" style="endArrow=none;html=1;rounded=0;exitX=1;exitY=0.5;exitDx=0;exitDy=0;" edge="1" parent="WIyWlLk6GJQsqaUBKTNV-1" source="uDHeOtieZX1u9QHMOAet-93">
          <mxGeometry width="50" height="50" relative="1" as="geometry">
            <mxPoint x="-628.5" y="1810" as="sourcePoint" />
            <mxPoint x="-598.5" y="1770" as="targetPoint" />
          </mxGeometry>
        </mxCell>
        <mxCell id="uDHeOtieZX1u9QHMOAet-112" value="" style="endArrow=none;html=1;rounded=0;exitX=1;exitY=0.5;exitDx=0;exitDy=0;" edge="1" parent="WIyWlLk6GJQsqaUBKTNV-1" source="uDHeOtieZX1u9QHMOAet-94">
          <mxGeometry width="50" height="50" relative="1" as="geometry">
            <mxPoint x="-538.5" y="1890" as="sourcePoint" />
            <mxPoint x="-598.5" y="1830" as="targetPoint" />
          </mxGeometry>
        </mxCell>
        <mxCell id="uDHeOtieZX1u9QHMOAet-113" value="" style="endArrow=none;html=1;rounded=0;entryX=0;entryY=0.5;entryDx=0;entryDy=0;fillColor=#dae8fc;strokeColor=#6c8ebf;" edge="1" parent="WIyWlLk6GJQsqaUBKTNV-1">
          <mxGeometry width="50" height="50" relative="1" as="geometry">
            <mxPoint x="-598.5" y="1700" as="sourcePoint" />
            <mxPoint x="-568.5" y="1700" as="targetPoint" />
          </mxGeometry>
        </mxCell>
        <mxCell id="uDHeOtieZX1u9QHMOAet-116" value="" style="endArrow=none;html=1;rounded=0;exitX=1;exitY=0.5;exitDx=0;exitDy=0;entryX=0;entryY=0.5;entryDx=0;entryDy=0;" edge="1" parent="WIyWlLk6GJQsqaUBKTNV-1" source="uDHeOtieZX1u9QHMOAet-37" target="uDHeOtieZX1u9QHMOAet-6">
          <mxGeometry width="50" height="50" relative="1" as="geometry">
            <mxPoint x="-640" y="180" as="sourcePoint" />
            <mxPoint x="-590" y="130" as="targetPoint" />
          </mxGeometry>
        </mxCell>
        <mxCell id="uDHeOtieZX1u9QHMOAet-126" value="&amp;lt;&amp;lt;Control&amp;gt;&amp;gt;&lt;div&gt;VisualizzaSaldoControl&lt;/div&gt;" style="swimlane;fontStyle=0;childLayout=stackLayout;horizontal=1;startSize=30;horizontalStack=0;resizeParent=1;resizeParentMax=0;resizeLast=0;collapsible=1;marginBottom=0;whiteSpace=wrap;html=1;fontSize=12;verticalAlign=middle;fillColor=#1ba1e2;strokeColor=#006EAF;fontColor=#ffffff;" vertex="1" parent="WIyWlLk6GJQsqaUBKTNV-1">
          <mxGeometry x="-590" y="210" width="140" height="60" as="geometry" />
        </mxCell>
        <mxCell id="uDHeOtieZX1u9QHMOAet-127" value="+ Visualizza ()" style="text;html=1;align=left;verticalAlign=middle;whiteSpace=wrap;rounded=0;fillColor=#dae8fc;strokeColor=#6c8ebf;" vertex="1" parent="uDHeOtieZX1u9QHMOAet-126">
          <mxGeometry y="30" width="140" height="30" as="geometry" />
        </mxCell>
        <mxCell id="uDHeOtieZX1u9QHMOAet-128" value="" style="endArrow=none;html=1;rounded=0;exitX=1;exitY=0.5;exitDx=0;exitDy=0;" edge="1" parent="WIyWlLk6GJQsqaUBKTNV-1" source="uDHeOtieZX1u9QHMOAet-4">
          <mxGeometry width="50" height="50" relative="1" as="geometry">
            <mxPoint x="-610" y="480" as="sourcePoint" />
            <mxPoint x="-600" y="470" as="targetPoint" />
          </mxGeometry>
        </mxCell>
        <mxCell id="uDHeOtieZX1u9QHMOAet-129" value="" style="endArrow=none;html=1;rounded=0;entryX=0;entryY=0;entryDx=0;entryDy=0;" edge="1" parent="WIyWlLk6GJQsqaUBKTNV-1" target="uDHeOtieZX1u9QHMOAet-41">
          <mxGeometry width="50" height="50" relative="1" as="geometry">
            <mxPoint x="-600" y="520" as="sourcePoint" />
            <mxPoint x="-520" y="380" as="targetPoint" />
          </mxGeometry>
        </mxCell>
        <mxCell id="uDHeOtieZX1u9QHMOAet-152" value="Gestore" style="swimlane;fontStyle=0;childLayout=stackLayout;horizontal=1;startSize=30;horizontalStack=0;resizeParent=1;resizeParentMax=0;resizeLast=0;collapsible=1;marginBottom=0;whiteSpace=wrap;html=1;fontSize=12;verticalAlign=middle;fillColor=#1ba1e2;fontColor=#ffffff;strokeColor=#006EAF;" vertex="1" parent="WIyWlLk6GJQsqaUBKTNV-1">
          <mxGeometry x="-270" y="1121" width="140" height="180" as="geometry" />
        </mxCell>
        <mxCell id="uDHeOtieZX1u9QHMOAet-153" value="Nome" style="text;html=1;align=left;verticalAlign=middle;whiteSpace=wrap;rounded=0;fillColor=#dae8fc;strokeColor=#6c8ebf;" vertex="1" parent="uDHeOtieZX1u9QHMOAet-152">
          <mxGeometry y="30" width="140" height="30" as="geometry" />
        </mxCell>
        <mxCell id="uDHeOtieZX1u9QHMOAet-154" value="Cognome" style="text;html=1;align=left;verticalAlign=middle;whiteSpace=wrap;rounded=0;fillColor=#dae8fc;strokeColor=#6c8ebf;" vertex="1" parent="uDHeOtieZX1u9QHMOAet-152">
          <mxGeometry y="60" width="140" height="30" as="geometry" />
        </mxCell>
        <mxCell id="uDHeOtieZX1u9QHMOAet-155" value="Data di Nascita" style="text;html=1;align=left;verticalAlign=middle;whiteSpace=wrap;rounded=0;fillColor=#dae8fc;strokeColor=#6c8ebf;" vertex="1" parent="uDHeOtieZX1u9QHMOAet-152">
          <mxGeometry y="90" width="140" height="30" as="geometry" />
        </mxCell>
        <mxCell id="uDHeOtieZX1u9QHMOAet-156" value="Username" style="text;html=1;align=left;verticalAlign=middle;whiteSpace=wrap;rounded=0;fillColor=#dae8fc;strokeColor=#6c8ebf;" vertex="1" parent="uDHeOtieZX1u9QHMOAet-152">
          <mxGeometry y="120" width="140" height="30" as="geometry" />
        </mxCell>
        <mxCell id="uDHeOtieZX1u9QHMOAet-157" value="Area di Competenza" style="text;html=1;align=left;verticalAlign=middle;whiteSpace=wrap;rounded=0;fillColor=#dae8fc;strokeColor=#6c8ebf;" vertex="1" parent="uDHeOtieZX1u9QHMOAet-152">
          <mxGeometry y="150" width="140" height="30" as="geometry" />
        </mxCell>
        <mxCell id="uDHeOtieZX1u9QHMOAet-159" value="Utente" style="swimlane;fontStyle=0;childLayout=stackLayout;horizontal=1;startSize=30;horizontalStack=0;resizeParent=1;resizeParentMax=0;resizeLast=0;collapsible=1;marginBottom=0;whiteSpace=wrap;html=1;fontSize=12;verticalAlign=middle;fillColor=#1ba1e2;strokeColor=#006EAF;fontColor=#ffffff;" vertex="1" parent="WIyWlLk6GJQsqaUBKTNV-1">
          <mxGeometry x="-358.5" y="1590" width="140" height="120" as="geometry" />
        </mxCell>
        <mxCell id="uDHeOtieZX1u9QHMOAet-160" value="Nome" style="text;html=1;align=left;verticalAlign=middle;whiteSpace=wrap;rounded=0;fillColor=#dae8fc;strokeColor=#6c8ebf;" vertex="1" parent="uDHeOtieZX1u9QHMOAet-159">
          <mxGeometry y="30" width="140" height="30" as="geometry" />
        </mxCell>
        <mxCell id="uDHeOtieZX1u9QHMOAet-168" value="Cognome" style="text;html=1;align=left;verticalAlign=middle;whiteSpace=wrap;rounded=0;fillColor=#dae8fc;strokeColor=#6c8ebf;" vertex="1" parent="uDHeOtieZX1u9QHMOAet-159">
          <mxGeometry y="60" width="140" height="30" as="geometry" />
        </mxCell>
        <mxCell id="uDHeOtieZX1u9QHMOAet-169" value="Username" style="text;html=1;align=left;verticalAlign=middle;whiteSpace=wrap;rounded=0;fillColor=#dae8fc;strokeColor=#6c8ebf;" vertex="1" parent="uDHeOtieZX1u9QHMOAet-159">
          <mxGeometry y="90" width="140" height="30" as="geometry" />
        </mxCell>
        <mxCell id="uDHeOtieZX1u9QHMOAet-162" value="" style="endArrow=none;html=1;rounded=0;entryX=0;entryY=0.5;entryDx=0;entryDy=0;" edge="1" parent="WIyWlLk6GJQsqaUBKTNV-1" target="uDHeOtieZX1u9QHMOAet-159">
          <mxGeometry width="50" height="50" relative="1" as="geometry">
            <mxPoint x="-398.5" y="1650" as="sourcePoint" />
            <mxPoint x="-388.5" y="1620" as="targetPoint" />
          </mxGeometry>
        </mxCell>
        <mxCell id="uDHeOtieZX1u9QHMOAet-170" value="" style="endArrow=none;html=1;rounded=0;exitX=1.002;exitY=0.406;exitDx=0;exitDy=0;exitPerimeter=0;" edge="1" parent="WIyWlLk6GJQsqaUBKTNV-1" source="uDHeOtieZX1u9QHMOAet-101">
          <mxGeometry width="50" height="50" relative="1" as="geometry">
            <mxPoint x="-218.5" y="1776.25" as="sourcePoint" />
            <mxPoint x="-88.5" y="1764" as="targetPoint" />
          </mxGeometry>
        </mxCell>
        <mxCell id="uDHeOtieZX1u9QHMOAet-172" value="" style="endArrow=none;html=1;rounded=0;exitX=1;exitY=0;exitDx=0;exitDy=0;entryX=0;entryY=0;entryDx=0;entryDy=0;" edge="1" parent="WIyWlLk6GJQsqaUBKTNV-1" source="uDHeOtieZX1u9QHMOAet-168" target="uDHeOtieZX1u9QHMOAet-117">
          <mxGeometry width="50" height="50" relative="1" as="geometry">
            <mxPoint x="-218.50000000000023" y="1654.37" as="sourcePoint" />
            <mxPoint x="-88.77999999999997" y="1645.6299999999997" as="targetPoint" />
          </mxGeometry>
        </mxCell>
        <mxCell id="uDHeOtieZX1u9QHMOAet-174" value="&amp;lt;&amp;lt;Control&amp;gt;&amp;gt;&lt;div&gt;RegistrazioneControl&lt;/div&gt;" style="swimlane;fontStyle=0;childLayout=stackLayout;horizontal=1;startSize=30;horizontalStack=0;resizeParent=1;resizeParentMax=0;resizeLast=0;collapsible=1;marginBottom=0;whiteSpace=wrap;html=1;fontSize=12;verticalAlign=middle;fillColor=#1ba1e2;strokeColor=#006EAF;fontColor=#ffffff;" vertex="1" parent="WIyWlLk6GJQsqaUBKTNV-1">
          <mxGeometry x="-568.5" y="1670" width="140" height="60" as="geometry" />
        </mxCell>
        <mxCell id="uDHeOtieZX1u9QHMOAet-175" value="+RegistraAccount()" style="text;html=1;align=left;verticalAlign=middle;whiteSpace=wrap;rounded=0;fillColor=#dae8fc;strokeColor=#6c8ebf;" vertex="1" parent="uDHeOtieZX1u9QHMOAet-174">
          <mxGeometry y="30" width="140" height="30" as="geometry" />
        </mxCell>
        <mxCell id="uDHeOtieZX1u9QHMOAet-177" value="" style="endArrow=none;html=1;rounded=0;exitX=1;exitY=0.5;exitDx=0;exitDy=0;" edge="1" parent="WIyWlLk6GJQsqaUBKTNV-1" source="uDHeOtieZX1u9QHMOAet-89">
          <mxGeometry width="50" height="50" relative="1" as="geometry">
            <mxPoint x="-568.5" y="1550" as="sourcePoint" />
            <mxPoint x="-598.5" y="1570" as="targetPoint" />
          </mxGeometry>
        </mxCell>
        <mxCell id="uDHeOtieZX1u9QHMOAet-180" value="Utente Registrato" style="swimlane;fontStyle=0;childLayout=stackLayout;horizontal=1;startSize=30;horizontalStack=0;resizeParent=1;resizeParentMax=0;resizeLast=0;collapsible=1;marginBottom=0;whiteSpace=wrap;html=1;fontSize=12;verticalAlign=middle;fillColor=#1ba1e2;strokeColor=#006EAF;fontColor=#ffffff;" vertex="1" parent="WIyWlLk6GJQsqaUBKTNV-1">
          <mxGeometry x="50" y="1128.5" width="140" height="210" as="geometry" />
        </mxCell>
        <mxCell id="uDHeOtieZX1u9QHMOAet-181" value="email" style="text;html=1;align=left;verticalAlign=middle;whiteSpace=wrap;rounded=0;fillColor=#dae8fc;strokeColor=#6c8ebf;" vertex="1" parent="uDHeOtieZX1u9QHMOAet-180">
          <mxGeometry y="30" width="140" height="30" as="geometry" />
        </mxCell>
        <mxCell id="uDHeOtieZX1u9QHMOAet-182" value="password" style="text;html=1;align=left;verticalAlign=middle;whiteSpace=wrap;rounded=0;fillColor=#dae8fc;strokeColor=#6c8ebf;" vertex="1" parent="uDHeOtieZX1u9QHMOAet-180">
          <mxGeometry y="60" width="140" height="30" as="geometry" />
        </mxCell>
        <mxCell id="uDHeOtieZX1u9QHMOAet-183" value="provincia" style="text;html=1;align=left;verticalAlign=middle;whiteSpace=wrap;rounded=0;fillColor=#dae8fc;strokeColor=#6c8ebf;" vertex="1" parent="uDHeOtieZX1u9QHMOAet-180">
          <mxGeometry y="90" width="140" height="30" as="geometry" />
        </mxCell>
        <mxCell id="uDHeOtieZX1u9QHMOAet-184" value="città" style="text;html=1;align=left;verticalAlign=middle;whiteSpace=wrap;rounded=0;fillColor=#dae8fc;strokeColor=#6c8ebf;" vertex="1" parent="uDHeOtieZX1u9QHMOAet-180">
          <mxGeometry y="120" width="140" height="30" as="geometry" />
        </mxCell>
        <mxCell id="uDHeOtieZX1u9QHMOAet-185" value="via" style="text;html=1;align=left;verticalAlign=middle;whiteSpace=wrap;rounded=0;fillColor=#dae8fc;strokeColor=#6c8ebf;" vertex="1" parent="uDHeOtieZX1u9QHMOAet-180">
          <mxGeometry y="150" width="140" height="30" as="geometry" />
        </mxCell>
        <mxCell id="uDHeOtieZX1u9QHMOAet-186" value="Recapito Telefonico" style="text;html=1;align=left;verticalAlign=middle;whiteSpace=wrap;rounded=0;fillColor=#dae8fc;strokeColor=#6c8ebf;" vertex="1" parent="uDHeOtieZX1u9QHMOAet-180">
          <mxGeometry y="180" width="140" height="30" as="geometry" />
        </mxCell>
        <mxCell id="uDHeOtieZX1u9QHMOAet-189" value="Utente" style="swimlane;fontStyle=0;childLayout=stackLayout;horizontal=1;startSize=30;horizontalStack=0;resizeParent=1;resizeParentMax=0;resizeLast=0;collapsible=1;marginBottom=0;whiteSpace=wrap;html=1;fontSize=12;verticalAlign=middle;fillColor=#1ba1e2;strokeColor=#006EAF;fontColor=#ffffff;" vertex="1" parent="WIyWlLk6GJQsqaUBKTNV-1">
          <mxGeometry x="-270" y="980" width="140" height="120" as="geometry" />
        </mxCell>
        <mxCell id="uDHeOtieZX1u9QHMOAet-190" value="Nome" style="text;html=1;align=left;verticalAlign=middle;whiteSpace=wrap;rounded=0;fillColor=#dae8fc;strokeColor=#6c8ebf;" vertex="1" parent="uDHeOtieZX1u9QHMOAet-189">
          <mxGeometry y="30" width="140" height="30" as="geometry" />
        </mxCell>
        <mxCell id="uDHeOtieZX1u9QHMOAet-191" value="Cognome" style="text;html=1;align=left;verticalAlign=middle;whiteSpace=wrap;rounded=0;fillColor=#dae8fc;strokeColor=#6c8ebf;" vertex="1" parent="uDHeOtieZX1u9QHMOAet-189">
          <mxGeometry y="60" width="140" height="30" as="geometry" />
        </mxCell>
        <mxCell id="uDHeOtieZX1u9QHMOAet-192" value="Username" style="text;html=1;align=left;verticalAlign=middle;whiteSpace=wrap;rounded=0;fillColor=#dae8fc;strokeColor=#6c8ebf;" vertex="1" parent="uDHeOtieZX1u9QHMOAet-189">
          <mxGeometry y="90" width="140" height="30" as="geometry" />
        </mxCell>
        <mxCell id="uDHeOtieZX1u9QHMOAet-195" value="Amministratore" style="swimlane;fontStyle=0;childLayout=stackLayout;horizontal=1;startSize=30;horizontalStack=0;resizeParent=1;resizeParentMax=0;resizeLast=0;collapsible=1;marginBottom=0;whiteSpace=wrap;html=1;fontSize=12;verticalAlign=middle;fillColor=#1ba1e2;fontColor=#ffffff;strokeColor=#006EAF;" vertex="1" parent="WIyWlLk6GJQsqaUBKTNV-1">
          <mxGeometry x="-270" y="1321" width="140" height="150" as="geometry" />
        </mxCell>
        <mxCell id="uDHeOtieZX1u9QHMOAet-196" value="Nome" style="text;html=1;align=left;verticalAlign=middle;whiteSpace=wrap;rounded=0;fillColor=#dae8fc;strokeColor=#6c8ebf;" vertex="1" parent="uDHeOtieZX1u9QHMOAet-195">
          <mxGeometry y="30" width="140" height="30" as="geometry" />
        </mxCell>
        <mxCell id="uDHeOtieZX1u9QHMOAet-197" value="Cognome" style="text;html=1;align=left;verticalAlign=middle;whiteSpace=wrap;rounded=0;fillColor=#dae8fc;strokeColor=#6c8ebf;" vertex="1" parent="uDHeOtieZX1u9QHMOAet-195">
          <mxGeometry y="60" width="140" height="30" as="geometry" />
        </mxCell>
        <mxCell id="uDHeOtieZX1u9QHMOAet-198" value="Data di Nascita" style="text;html=1;align=left;verticalAlign=middle;whiteSpace=wrap;rounded=0;fillColor=#dae8fc;strokeColor=#6c8ebf;" vertex="1" parent="uDHeOtieZX1u9QHMOAet-195">
          <mxGeometry y="90" width="140" height="30" as="geometry" />
        </mxCell>
        <mxCell id="uDHeOtieZX1u9QHMOAet-199" value="Username" style="text;html=1;align=left;verticalAlign=middle;whiteSpace=wrap;rounded=0;fillColor=#dae8fc;strokeColor=#6c8ebf;" vertex="1" parent="uDHeOtieZX1u9QHMOAet-195">
          <mxGeometry y="120" width="140" height="30" as="geometry" />
        </mxCell>
        <mxCell id="uDHeOtieZX1u9QHMOAet-200" value="" style="endArrow=none;html=1;rounded=0;entryX=-0.015;entryY=0.129;entryDx=0;entryDy=0;entryPerimeter=0;" edge="1" parent="WIyWlLk6GJQsqaUBKTNV-1" target="uDHeOtieZX1u9QHMOAet-195">
          <mxGeometry width="50" height="50" relative="1" as="geometry">
            <mxPoint x="-330" y="1341" as="sourcePoint" />
            <mxPoint x="-281" y="1341" as="targetPoint" />
          </mxGeometry>
        </mxCell>
        <mxCell id="uDHeOtieZX1u9QHMOAet-201" value="" style="endArrow=none;html=1;rounded=0;" edge="1" parent="WIyWlLk6GJQsqaUBKTNV-1">
          <mxGeometry width="50" height="50" relative="1" as="geometry">
            <mxPoint x="-40" y="1381" as="sourcePoint" />
            <mxPoint x="-40.42" y="1018.5" as="targetPoint" />
          </mxGeometry>
        </mxCell>
        <mxCell id="uDHeOtieZX1u9QHMOAet-202" value="" style="endArrow=none;html=1;rounded=0;" edge="1" parent="WIyWlLk6GJQsqaUBKTNV-1">
          <mxGeometry width="50" height="50" relative="1" as="geometry">
            <mxPoint x="-130" y="1019" as="sourcePoint" />
            <mxPoint x="-40" y="1019" as="targetPoint" />
          </mxGeometry>
        </mxCell>
        <mxCell id="uDHeOtieZX1u9QHMOAet-203" value="" style="endArrow=none;html=1;rounded=0;exitX=1;exitY=0;exitDx=0;exitDy=0;" edge="1" parent="WIyWlLk6GJQsqaUBKTNV-1" source="uDHeOtieZX1u9QHMOAet-197">
          <mxGeometry width="50" height="50" relative="1" as="geometry">
            <mxPoint x="-80" y="1431" as="sourcePoint" />
            <mxPoint x="-40" y="1381" as="targetPoint" />
          </mxGeometry>
        </mxCell>
        <mxCell id="uDHeOtieZX1u9QHMOAet-204" value="" style="endArrow=none;html=1;rounded=0;exitX=1;exitY=0.25;exitDx=0;exitDy=0;entryX=0;entryY=0;entryDx=0;entryDy=0;" edge="1" parent="WIyWlLk6GJQsqaUBKTNV-1" source="uDHeOtieZX1u9QHMOAet-154" target="uDHeOtieZX1u9QHMOAet-182">
          <mxGeometry width="50" height="50" relative="1" as="geometry">
            <mxPoint x="-80" y="1211" as="sourcePoint" />
            <mxPoint x="-30" y="1161" as="targetPoint" />
          </mxGeometry>
        </mxCell>
        <mxCell id="uDHeOtieZX1u9QHMOAet-216" value="" style="endArrow=none;html=1;rounded=0;entryX=0;entryY=0;entryDx=0;entryDy=0;" edge="1" parent="WIyWlLk6GJQsqaUBKTNV-1">
          <mxGeometry width="50" height="50" relative="1" as="geometry">
            <mxPoint x="-320" y="458.5" as="sourcePoint" />
            <mxPoint x="-260" y="458.5" as="targetPoint" />
          </mxGeometry>
        </mxCell>
        <mxCell id="uDHeOtieZX1u9QHMOAet-217" value="" style="endArrow=none;html=1;rounded=0;entryX=0;entryY=0;entryDx=0;entryDy=0;" edge="1" parent="WIyWlLk6GJQsqaUBKTNV-1">
          <mxGeometry width="50" height="50" relative="1" as="geometry">
            <mxPoint x="-320" y="590" as="sourcePoint" />
            <mxPoint x="-260" y="590" as="targetPoint" />
            <Array as="points">
              <mxPoint x="-300" y="590" />
            </Array>
          </mxGeometry>
        </mxCell>
        <mxCell id="uDHeOtieZX1u9QHMOAet-218" value="" style="endArrow=none;html=1;rounded=0;" edge="1" parent="WIyWlLk6GJQsqaUBKTNV-1">
          <mxGeometry width="50" height="50" relative="1" as="geometry">
            <mxPoint x="-320" y="761" as="sourcePoint" />
            <mxPoint x="-320" y="458.5" as="targetPoint" />
          </mxGeometry>
        </mxCell>
        <mxCell id="uDHeOtieZX1u9QHMOAet-219" value="Gestore" style="swimlane;fontStyle=0;childLayout=stackLayout;horizontal=1;startSize=30;horizontalStack=0;resizeParent=1;resizeParentMax=0;resizeLast=0;collapsible=1;marginBottom=0;whiteSpace=wrap;html=1;fontSize=12;verticalAlign=middle;fillColor=#1ba1e2;fontColor=#ffffff;strokeColor=#006EAF;" vertex="1" parent="WIyWlLk6GJQsqaUBKTNV-1">
          <mxGeometry x="-260" y="541" width="140" height="180" as="geometry" />
        </mxCell>
        <mxCell id="uDHeOtieZX1u9QHMOAet-220" value="Nome" style="text;html=1;align=left;verticalAlign=middle;whiteSpace=wrap;rounded=0;fillColor=#dae8fc;strokeColor=#6c8ebf;" vertex="1" parent="uDHeOtieZX1u9QHMOAet-219">
          <mxGeometry y="30" width="140" height="30" as="geometry" />
        </mxCell>
        <mxCell id="uDHeOtieZX1u9QHMOAet-221" value="Cognome" style="text;html=1;align=left;verticalAlign=middle;whiteSpace=wrap;rounded=0;fillColor=#dae8fc;strokeColor=#6c8ebf;" vertex="1" parent="uDHeOtieZX1u9QHMOAet-219">
          <mxGeometry y="60" width="140" height="30" as="geometry" />
        </mxCell>
        <mxCell id="uDHeOtieZX1u9QHMOAet-222" value="Data di Nascita" style="text;html=1;align=left;verticalAlign=middle;whiteSpace=wrap;rounded=0;fillColor=#dae8fc;strokeColor=#6c8ebf;" vertex="1" parent="uDHeOtieZX1u9QHMOAet-219">
          <mxGeometry y="90" width="140" height="30" as="geometry" />
        </mxCell>
        <mxCell id="uDHeOtieZX1u9QHMOAet-223" value="Username" style="text;html=1;align=left;verticalAlign=middle;whiteSpace=wrap;rounded=0;fillColor=#dae8fc;strokeColor=#6c8ebf;" vertex="1" parent="uDHeOtieZX1u9QHMOAet-219">
          <mxGeometry y="120" width="140" height="30" as="geometry" />
        </mxCell>
        <mxCell id="uDHeOtieZX1u9QHMOAet-224" value="Area di Competenza" style="text;html=1;align=left;verticalAlign=middle;whiteSpace=wrap;rounded=0;fillColor=#dae8fc;strokeColor=#6c8ebf;" vertex="1" parent="uDHeOtieZX1u9QHMOAet-219">
          <mxGeometry y="150" width="140" height="30" as="geometry" />
        </mxCell>
        <mxCell id="uDHeOtieZX1u9QHMOAet-225" value="Utente Registrato" style="swimlane;fontStyle=0;childLayout=stackLayout;horizontal=1;startSize=30;horizontalStack=0;resizeParent=1;resizeParentMax=0;resizeLast=0;collapsible=1;marginBottom=0;whiteSpace=wrap;html=1;fontSize=12;verticalAlign=middle;fillColor=#1ba1e2;strokeColor=#006EAF;fontColor=#ffffff;" vertex="1" parent="WIyWlLk6GJQsqaUBKTNV-1">
          <mxGeometry x="60" y="548.5" width="140" height="210" as="geometry" />
        </mxCell>
        <mxCell id="uDHeOtieZX1u9QHMOAet-226" value="email" style="text;html=1;align=left;verticalAlign=middle;whiteSpace=wrap;rounded=0;fillColor=#dae8fc;strokeColor=#6c8ebf;" vertex="1" parent="uDHeOtieZX1u9QHMOAet-225">
          <mxGeometry y="30" width="140" height="30" as="geometry" />
        </mxCell>
        <mxCell id="uDHeOtieZX1u9QHMOAet-227" value="password" style="text;html=1;align=left;verticalAlign=middle;whiteSpace=wrap;rounded=0;fillColor=#dae8fc;strokeColor=#6c8ebf;" vertex="1" parent="uDHeOtieZX1u9QHMOAet-225">
          <mxGeometry y="60" width="140" height="30" as="geometry" />
        </mxCell>
        <mxCell id="uDHeOtieZX1u9QHMOAet-228" value="provincia" style="text;html=1;align=left;verticalAlign=middle;whiteSpace=wrap;rounded=0;fillColor=#dae8fc;strokeColor=#6c8ebf;" vertex="1" parent="uDHeOtieZX1u9QHMOAet-225">
          <mxGeometry y="90" width="140" height="30" as="geometry" />
        </mxCell>
        <mxCell id="uDHeOtieZX1u9QHMOAet-229" value="città" style="text;html=1;align=left;verticalAlign=middle;whiteSpace=wrap;rounded=0;fillColor=#dae8fc;strokeColor=#6c8ebf;" vertex="1" parent="uDHeOtieZX1u9QHMOAet-225">
          <mxGeometry y="120" width="140" height="30" as="geometry" />
        </mxCell>
        <mxCell id="uDHeOtieZX1u9QHMOAet-230" value="via" style="text;html=1;align=left;verticalAlign=middle;whiteSpace=wrap;rounded=0;fillColor=#dae8fc;strokeColor=#6c8ebf;" vertex="1" parent="uDHeOtieZX1u9QHMOAet-225">
          <mxGeometry y="150" width="140" height="30" as="geometry" />
        </mxCell>
        <mxCell id="uDHeOtieZX1u9QHMOAet-231" value="Recapito Telefonico" style="text;html=1;align=left;verticalAlign=middle;whiteSpace=wrap;rounded=0;fillColor=#dae8fc;strokeColor=#6c8ebf;" vertex="1" parent="uDHeOtieZX1u9QHMOAet-225">
          <mxGeometry y="180" width="140" height="30" as="geometry" />
        </mxCell>
        <mxCell id="uDHeOtieZX1u9QHMOAet-232" value="Utente" style="swimlane;fontStyle=0;childLayout=stackLayout;horizontal=1;startSize=30;horizontalStack=0;resizeParent=1;resizeParentMax=0;resizeLast=0;collapsible=1;marginBottom=0;whiteSpace=wrap;html=1;fontSize=12;verticalAlign=middle;fillColor=#1ba1e2;strokeColor=#006EAF;fontColor=#ffffff;" vertex="1" parent="WIyWlLk6GJQsqaUBKTNV-1">
          <mxGeometry x="-260" y="400" width="140" height="120" as="geometry" />
        </mxCell>
        <mxCell id="uDHeOtieZX1u9QHMOAet-233" value="Nome" style="text;html=1;align=left;verticalAlign=middle;whiteSpace=wrap;rounded=0;fillColor=#dae8fc;strokeColor=#6c8ebf;" vertex="1" parent="uDHeOtieZX1u9QHMOAet-232">
          <mxGeometry y="30" width="140" height="30" as="geometry" />
        </mxCell>
        <mxCell id="uDHeOtieZX1u9QHMOAet-234" value="Cognome" style="text;html=1;align=left;verticalAlign=middle;whiteSpace=wrap;rounded=0;fillColor=#dae8fc;strokeColor=#6c8ebf;" vertex="1" parent="uDHeOtieZX1u9QHMOAet-232">
          <mxGeometry y="60" width="140" height="30" as="geometry" />
        </mxCell>
        <mxCell id="uDHeOtieZX1u9QHMOAet-235" value="Username" style="text;html=1;align=left;verticalAlign=middle;whiteSpace=wrap;rounded=0;fillColor=#dae8fc;strokeColor=#6c8ebf;" vertex="1" parent="uDHeOtieZX1u9QHMOAet-232">
          <mxGeometry y="90" width="140" height="30" as="geometry" />
        </mxCell>
        <mxCell id="uDHeOtieZX1u9QHMOAet-236" value="Amministratore" style="swimlane;fontStyle=0;childLayout=stackLayout;horizontal=1;startSize=30;horizontalStack=0;resizeParent=1;resizeParentMax=0;resizeLast=0;collapsible=1;marginBottom=0;whiteSpace=wrap;html=1;fontSize=12;verticalAlign=middle;fillColor=#1ba1e2;fontColor=#ffffff;strokeColor=#006EAF;" vertex="1" parent="WIyWlLk6GJQsqaUBKTNV-1">
          <mxGeometry x="-260" y="741" width="140" height="150" as="geometry" />
        </mxCell>
        <mxCell id="uDHeOtieZX1u9QHMOAet-237" value="Nome" style="text;html=1;align=left;verticalAlign=middle;whiteSpace=wrap;rounded=0;fillColor=#dae8fc;strokeColor=#6c8ebf;" vertex="1" parent="uDHeOtieZX1u9QHMOAet-236">
          <mxGeometry y="30" width="140" height="30" as="geometry" />
        </mxCell>
        <mxCell id="uDHeOtieZX1u9QHMOAet-238" value="Cognome" style="text;html=1;align=left;verticalAlign=middle;whiteSpace=wrap;rounded=0;fillColor=#dae8fc;strokeColor=#6c8ebf;" vertex="1" parent="uDHeOtieZX1u9QHMOAet-236">
          <mxGeometry y="60" width="140" height="30" as="geometry" />
        </mxCell>
        <mxCell id="uDHeOtieZX1u9QHMOAet-239" value="Data di Nascita" style="text;html=1;align=left;verticalAlign=middle;whiteSpace=wrap;rounded=0;fillColor=#dae8fc;strokeColor=#6c8ebf;" vertex="1" parent="uDHeOtieZX1u9QHMOAet-236">
          <mxGeometry y="90" width="140" height="30" as="geometry" />
        </mxCell>
        <mxCell id="uDHeOtieZX1u9QHMOAet-240" value="Username" style="text;html=1;align=left;verticalAlign=middle;whiteSpace=wrap;rounded=0;fillColor=#dae8fc;strokeColor=#6c8ebf;" vertex="1" parent="uDHeOtieZX1u9QHMOAet-236">
          <mxGeometry y="120" width="140" height="30" as="geometry" />
        </mxCell>
        <mxCell id="uDHeOtieZX1u9QHMOAet-241" value="" style="endArrow=none;html=1;rounded=0;entryX=-0.015;entryY=0.129;entryDx=0;entryDy=0;entryPerimeter=0;" edge="1" parent="WIyWlLk6GJQsqaUBKTNV-1" target="uDHeOtieZX1u9QHMOAet-236">
          <mxGeometry width="50" height="50" relative="1" as="geometry">
            <mxPoint x="-320" y="761" as="sourcePoint" />
            <mxPoint x="-271" y="761" as="targetPoint" />
          </mxGeometry>
        </mxCell>
        <mxCell id="uDHeOtieZX1u9QHMOAet-242" value="" style="endArrow=none;html=1;rounded=0;" edge="1" parent="WIyWlLk6GJQsqaUBKTNV-1">
          <mxGeometry width="50" height="50" relative="1" as="geometry">
            <mxPoint x="-30" y="801" as="sourcePoint" />
            <mxPoint x="-30.42" y="438.5" as="targetPoint" />
          </mxGeometry>
        </mxCell>
        <mxCell id="uDHeOtieZX1u9QHMOAet-243" value="" style="endArrow=none;html=1;rounded=0;" edge="1" parent="WIyWlLk6GJQsqaUBKTNV-1">
          <mxGeometry width="50" height="50" relative="1" as="geometry">
            <mxPoint x="-120" y="439" as="sourcePoint" />
            <mxPoint x="-30" y="439" as="targetPoint" />
          </mxGeometry>
        </mxCell>
        <mxCell id="uDHeOtieZX1u9QHMOAet-244" value="" style="endArrow=none;html=1;rounded=0;exitX=1;exitY=0;exitDx=0;exitDy=0;" edge="1" parent="WIyWlLk6GJQsqaUBKTNV-1" source="uDHeOtieZX1u9QHMOAet-238">
          <mxGeometry width="50" height="50" relative="1" as="geometry">
            <mxPoint x="-70" y="851" as="sourcePoint" />
            <mxPoint x="-30" y="801" as="targetPoint" />
          </mxGeometry>
        </mxCell>
        <mxCell id="uDHeOtieZX1u9QHMOAet-245" value="" style="endArrow=none;html=1;rounded=0;exitX=1;exitY=0.25;exitDx=0;exitDy=0;entryX=0;entryY=0;entryDx=0;entryDy=0;" edge="1" parent="WIyWlLk6GJQsqaUBKTNV-1" source="uDHeOtieZX1u9QHMOAet-221" target="uDHeOtieZX1u9QHMOAet-227">
          <mxGeometry width="50" height="50" relative="1" as="geometry">
            <mxPoint x="-70" y="631" as="sourcePoint" />
            <mxPoint x="-20" y="581" as="targetPoint" />
          </mxGeometry>
        </mxCell>
        <mxCell id="uDHeOtieZX1u9QHMOAet-246" value="&amp;lt;&amp;lt;Boundary&amp;gt;&amp;gt;&lt;div&gt;CreaEventoButton&lt;/div&gt;" style="swimlane;fontStyle=0;childLayout=stackLayout;horizontal=1;startSize=30;horizontalStack=0;resizeParent=1;resizeParentMax=0;resizeLast=0;collapsible=1;marginBottom=0;whiteSpace=wrap;html=1;fontSize=12;verticalAlign=middle;fillColor=#1ba1e2;strokeColor=#006EAF;fillStyle=auto;fontColor=#ffffff;" vertex="1" parent="WIyWlLk6GJQsqaUBKTNV-1">
          <mxGeometry x="-788.5" y="1900" width="140" height="40" as="geometry" />
        </mxCell>
        <mxCell id="uDHeOtieZX1u9QHMOAet-247" value="&amp;lt;&amp;lt;Boundary&amp;gt;&amp;gt;&lt;div&gt;ModificaEventoButton&lt;/div&gt;" style="swimlane;fontStyle=0;childLayout=stackLayout;horizontal=1;startSize=30;horizontalStack=0;resizeParent=1;resizeParentMax=0;resizeLast=0;collapsible=1;marginBottom=0;whiteSpace=wrap;html=1;fontSize=12;verticalAlign=middle;fillColor=#1ba1e2;strokeColor=#006EAF;fillStyle=auto;fontColor=#ffffff;" vertex="1" parent="WIyWlLk6GJQsqaUBKTNV-1">
          <mxGeometry x="-788.5" y="2060" width="140" height="40" as="geometry" />
        </mxCell>
        <mxCell id="uDHeOtieZX1u9QHMOAet-248" value="&amp;lt;&amp;lt;Boundary&amp;gt;&amp;gt;&lt;div&gt;CreaQuotaForm&lt;/div&gt;" style="swimlane;fontStyle=0;childLayout=stackLayout;horizontal=1;startSize=30;horizontalStack=0;resizeParent=1;resizeParentMax=0;resizeLast=0;collapsible=1;marginBottom=0;whiteSpace=wrap;html=1;fontSize=12;verticalAlign=middle;fillColor=#1ba1e2;strokeColor=#006EAF;fillStyle=auto;fontColor=#ffffff;" vertex="1" parent="WIyWlLk6GJQsqaUBKTNV-1">
          <mxGeometry x="-790" y="2220" width="140" height="40" as="geometry" />
        </mxCell>
        <mxCell id="uDHeOtieZX1u9QHMOAet-249" value="&amp;lt;&amp;lt;Boundary&amp;gt;&amp;gt;&lt;div&gt;CreaEventoForm&lt;/div&gt;" style="swimlane;fontStyle=0;childLayout=stackLayout;horizontal=1;startSize=30;horizontalStack=0;resizeParent=1;resizeParentMax=0;resizeLast=0;collapsible=1;marginBottom=0;whiteSpace=wrap;html=1;fontSize=12;verticalAlign=middle;fillColor=#1ba1e2;strokeColor=#006EAF;fillStyle=auto;fontColor=#ffffff;" vertex="1" parent="WIyWlLk6GJQsqaUBKTNV-1">
          <mxGeometry x="-788.5" y="1970" width="140" height="40" as="geometry" />
        </mxCell>
        <mxCell id="uDHeOtieZX1u9QHMOAet-250" value="&amp;lt;&amp;lt;Boundary&amp;gt;&amp;gt;&lt;div&gt;ModificaEventoForm&lt;/div&gt;" style="swimlane;fontStyle=0;childLayout=stackLayout;horizontal=1;startSize=30;horizontalStack=0;resizeParent=1;resizeParentMax=0;resizeLast=0;collapsible=1;marginBottom=0;whiteSpace=wrap;html=1;fontSize=12;verticalAlign=middle;fillColor=#1ba1e2;strokeColor=#006EAF;fillStyle=auto;fontColor=#ffffff;" vertex="1" parent="WIyWlLk6GJQsqaUBKTNV-1">
          <mxGeometry x="-788.5" y="2130" width="140" height="40" as="geometry" />
        </mxCell>
        <mxCell id="uDHeOtieZX1u9QHMOAet-262" value="" style="endArrow=none;html=1;rounded=0;" edge="1" parent="uDHeOtieZX1u9QHMOAet-250">
          <mxGeometry width="50" height="50" relative="1" as="geometry">
            <mxPoint x="188.5" y="20" as="sourcePoint" />
            <mxPoint x="188.5" y="-50" as="targetPoint" />
            <Array as="points">
              <mxPoint x="188.5" y="-10" />
            </Array>
          </mxGeometry>
        </mxCell>
        <mxCell id="uDHeOtieZX1u9QHMOAet-252" value="&amp;lt;&amp;lt;Control&amp;gt;&amp;gt;&lt;div&gt;CreazioneEventoControl&lt;/div&gt;" style="swimlane;fontStyle=0;childLayout=stackLayout;horizontal=1;startSize=30;horizontalStack=0;resizeParent=1;resizeParentMax=0;resizeLast=0;collapsible=1;marginBottom=0;whiteSpace=wrap;html=1;fontSize=12;verticalAlign=middle;fillColor=#1ba1e2;strokeColor=#006EAF;fontColor=#ffffff;" vertex="1" parent="WIyWlLk6GJQsqaUBKTNV-1">
          <mxGeometry x="-560" y="1930" width="140" height="60" as="geometry" />
        </mxCell>
        <mxCell id="uDHeOtieZX1u9QHMOAet-253" value="+CreaEvento()" style="text;html=1;align=left;verticalAlign=middle;whiteSpace=wrap;rounded=0;fillColor=#dae8fc;strokeColor=#6c8ebf;" vertex="1" parent="uDHeOtieZX1u9QHMOAet-252">
          <mxGeometry y="30" width="140" height="30" as="geometry" />
        </mxCell>
        <mxCell id="uDHeOtieZX1u9QHMOAet-254" value="&amp;lt;&amp;lt;Control&amp;gt;&amp;gt;&lt;div&gt;ModificaEventoControl&lt;/div&gt;" style="swimlane;fontStyle=0;childLayout=stackLayout;horizontal=1;startSize=30;horizontalStack=0;resizeParent=1;resizeParentMax=0;resizeLast=0;collapsible=1;marginBottom=0;whiteSpace=wrap;html=1;fontSize=12;verticalAlign=middle;fillColor=#1ba1e2;strokeColor=#006EAF;fontColor=#ffffff;" vertex="1" parent="WIyWlLk6GJQsqaUBKTNV-1">
          <mxGeometry x="-560" y="2090" width="140" height="60" as="geometry" />
        </mxCell>
        <mxCell id="uDHeOtieZX1u9QHMOAet-255" value="+ModificaEvento()" style="text;html=1;align=left;verticalAlign=middle;whiteSpace=wrap;rounded=0;fillColor=#dae8fc;strokeColor=#6c8ebf;" vertex="1" parent="uDHeOtieZX1u9QHMOAet-254">
          <mxGeometry y="30" width="140" height="30" as="geometry" />
        </mxCell>
        <mxCell id="uDHeOtieZX1u9QHMOAet-256" value="" style="endArrow=none;html=1;rounded=0;" edge="1" parent="WIyWlLk6GJQsqaUBKTNV-1">
          <mxGeometry width="50" height="50" relative="1" as="geometry">
            <mxPoint x="-650" y="1920" as="sourcePoint" />
            <mxPoint x="-600" y="1920" as="targetPoint" />
          </mxGeometry>
        </mxCell>
        <mxCell id="uDHeOtieZX1u9QHMOAet-257" value="" style="endArrow=none;html=1;rounded=0;exitX=1;exitY=0.5;exitDx=0;exitDy=0;" edge="1" parent="WIyWlLk6GJQsqaUBKTNV-1" source="uDHeOtieZX1u9QHMOAet-249">
          <mxGeometry width="50" height="50" relative="1" as="geometry">
            <mxPoint x="-620" y="2030" as="sourcePoint" />
            <mxPoint x="-600" y="1990" as="targetPoint" />
          </mxGeometry>
        </mxCell>
        <mxCell id="uDHeOtieZX1u9QHMOAet-258" value="" style="endArrow=none;html=1;rounded=0;" edge="1" parent="WIyWlLk6GJQsqaUBKTNV-1">
          <mxGeometry width="50" height="50" relative="1" as="geometry">
            <mxPoint x="-600" y="1990" as="sourcePoint" />
            <mxPoint x="-600" y="1920" as="targetPoint" />
          </mxGeometry>
        </mxCell>
        <mxCell id="uDHeOtieZX1u9QHMOAet-259" value="" style="endArrow=none;html=1;rounded=0;entryX=0;entryY=0;entryDx=0;entryDy=0;" edge="1" parent="WIyWlLk6GJQsqaUBKTNV-1">
          <mxGeometry width="50" height="50" relative="1" as="geometry">
            <mxPoint x="-600" y="1960" as="sourcePoint" />
            <mxPoint x="-560" y="1960" as="targetPoint" />
          </mxGeometry>
        </mxCell>
        <mxCell id="uDHeOtieZX1u9QHMOAet-260" value="" style="endArrow=none;html=1;rounded=0;exitX=1;exitY=0.5;exitDx=0;exitDy=0;" edge="1" parent="WIyWlLk6GJQsqaUBKTNV-1" source="uDHeOtieZX1u9QHMOAet-247">
          <mxGeometry width="50" height="50" relative="1" as="geometry">
            <mxPoint x="-620" y="2120" as="sourcePoint" />
            <mxPoint x="-600" y="2080" as="targetPoint" />
          </mxGeometry>
        </mxCell>
        <mxCell id="uDHeOtieZX1u9QHMOAet-261" value="" style="endArrow=none;html=1;rounded=0;exitX=1;exitY=0.5;exitDx=0;exitDy=0;" edge="1" parent="WIyWlLk6GJQsqaUBKTNV-1" source="uDHeOtieZX1u9QHMOAet-250">
          <mxGeometry width="50" height="50" relative="1" as="geometry">
            <mxPoint x="-570" y="2260" as="sourcePoint" />
            <mxPoint x="-600" y="2150" as="targetPoint" />
          </mxGeometry>
        </mxCell>
        <mxCell id="uDHeOtieZX1u9QHMOAet-263" value="" style="endArrow=none;html=1;rounded=0;entryX=0;entryY=0;entryDx=0;entryDy=0;" edge="1" parent="WIyWlLk6GJQsqaUBKTNV-1" target="uDHeOtieZX1u9QHMOAet-255">
          <mxGeometry width="50" height="50" relative="1" as="geometry">
            <mxPoint x="-600" y="2120" as="sourcePoint" />
            <mxPoint x="-570" y="2120" as="targetPoint" />
          </mxGeometry>
        </mxCell>
        <mxCell id="uDHeOtieZX1u9QHMOAet-264" value="" style="endArrow=none;html=1;rounded=0;exitX=1.024;exitY=-0.048;exitDx=0;exitDy=0;exitPerimeter=0;" edge="1" parent="WIyWlLk6GJQsqaUBKTNV-1" source="uDHeOtieZX1u9QHMOAet-255">
          <mxGeometry width="50" height="50" relative="1" as="geometry">
            <mxPoint x="-340" y="2100" as="sourcePoint" />
            <mxPoint x="-320" y="2119" as="targetPoint" />
          </mxGeometry>
        </mxCell>
        <mxCell id="uDHeOtieZX1u9QHMOAet-265" value="" style="endArrow=none;html=1;rounded=0;exitX=1;exitY=0;exitDx=0;exitDy=0;" edge="1" parent="WIyWlLk6GJQsqaUBKTNV-1" source="uDHeOtieZX1u9QHMOAet-253">
          <mxGeometry width="50" height="50" relative="1" as="geometry">
            <mxPoint x="-400" y="1990" as="sourcePoint" />
            <mxPoint x="-320" y="1960" as="targetPoint" />
          </mxGeometry>
        </mxCell>
        <mxCell id="uDHeOtieZX1u9QHMOAet-266" value="Evento" style="swimlane;fontStyle=0;childLayout=stackLayout;horizontal=1;startSize=30;horizontalStack=0;resizeParent=1;resizeParentMax=0;resizeLast=0;collapsible=1;marginBottom=0;whiteSpace=wrap;html=1;fontSize=12;verticalAlign=middle;fillColor=#1ba1e2;strokeColor=#006EAF;fontColor=#ffffff;" vertex="1" parent="WIyWlLk6GJQsqaUBKTNV-1">
          <mxGeometry x="-240" y="1920" width="140" height="240" as="geometry" />
        </mxCell>
        <mxCell id="uDHeOtieZX1u9QHMOAet-267" value="Data&amp;nbsp;" style="text;html=1;align=left;verticalAlign=middle;whiteSpace=wrap;rounded=0;fillColor=#dae8fc;strokeColor=#6c8ebf;" vertex="1" parent="uDHeOtieZX1u9QHMOAet-266">
          <mxGeometry y="30" width="140" height="30" as="geometry" />
        </mxCell>
        <mxCell id="uDHeOtieZX1u9QHMOAet-268" value="Ora Inizio" style="text;html=1;align=left;verticalAlign=middle;whiteSpace=wrap;rounded=0;fillColor=#dae8fc;strokeColor=#6c8ebf;" vertex="1" parent="uDHeOtieZX1u9QHMOAet-266">
          <mxGeometry y="60" width="140" height="30" as="geometry" />
        </mxCell>
        <mxCell id="uDHeOtieZX1u9QHMOAet-269" value="Ora Fine" style="text;html=1;align=left;verticalAlign=middle;whiteSpace=wrap;rounded=0;fillColor=#dae8fc;strokeColor=#6c8ebf;" vertex="1" parent="uDHeOtieZX1u9QHMOAet-266">
          <mxGeometry y="90" width="140" height="30" as="geometry" />
        </mxCell>
        <mxCell id="uDHeOtieZX1u9QHMOAet-270" value="lega" style="text;html=1;align=left;verticalAlign=middle;whiteSpace=wrap;rounded=0;fillColor=#dae8fc;strokeColor=#6c8ebf;" vertex="1" parent="uDHeOtieZX1u9QHMOAet-266">
          <mxGeometry y="120" width="140" height="30" as="geometry" />
        </mxCell>
        <mxCell id="uDHeOtieZX1u9QHMOAet-271" value="Sport" style="text;html=1;align=left;verticalAlign=middle;whiteSpace=wrap;rounded=0;fillColor=#dae8fc;strokeColor=#6c8ebf;" vertex="1" parent="uDHeOtieZX1u9QHMOAet-266">
          <mxGeometry y="150" width="140" height="30" as="geometry" />
        </mxCell>
        <mxCell id="uDHeOtieZX1u9QHMOAet-272" value="Squadra/giocatore 1" style="text;html=1;align=left;verticalAlign=middle;whiteSpace=wrap;rounded=0;fillColor=#dae8fc;strokeColor=#6c8ebf;" vertex="1" parent="uDHeOtieZX1u9QHMOAet-266">
          <mxGeometry y="180" width="140" height="30" as="geometry" />
        </mxCell>
        <mxCell id="uDHeOtieZX1u9QHMOAet-273" value="Squadra/giocatore&amp;nbsp;" style="text;html=1;align=left;verticalAlign=middle;whiteSpace=wrap;rounded=0;fillColor=#dae8fc;strokeColor=#6c8ebf;" vertex="1" parent="uDHeOtieZX1u9QHMOAet-266">
          <mxGeometry y="210" width="140" height="30" as="geometry" />
        </mxCell>
        <mxCell id="uDHeOtieZX1u9QHMOAet-274" value="" style="endArrow=none;html=1;rounded=0;" edge="1" parent="WIyWlLk6GJQsqaUBKTNV-1">
          <mxGeometry width="50" height="50" relative="1" as="geometry">
            <mxPoint x="-320" y="2120" as="sourcePoint" />
            <mxPoint x="-320" y="1960" as="targetPoint" />
          </mxGeometry>
        </mxCell>
        <mxCell id="uDHeOtieZX1u9QHMOAet-285" value="" style="endArrow=none;html=1;rounded=0;entryX=0;entryY=0;entryDx=0;entryDy=0;" edge="1" parent="WIyWlLk6GJQsqaUBKTNV-1" target="uDHeOtieZX1u9QHMOAet-270">
          <mxGeometry width="50" height="50" relative="1" as="geometry">
            <mxPoint x="-320" y="2040" as="sourcePoint" />
            <mxPoint x="-250" y="2030" as="targetPoint" />
          </mxGeometry>
        </mxCell>
        <mxCell id="uDHeOtieZX1u9QHMOAet-286" value="&amp;lt;&amp;lt;Boundary&amp;gt;&amp;gt;&lt;div&gt;CreaQuotaButton&lt;/div&gt;" style="swimlane;fontStyle=0;childLayout=stackLayout;horizontal=1;startSize=30;horizontalStack=0;resizeParent=1;resizeParentMax=0;resizeLast=0;collapsible=1;marginBottom=0;whiteSpace=wrap;html=1;fontSize=12;verticalAlign=middle;fillColor=#1ba1e2;strokeColor=#006EAF;fillStyle=auto;fontColor=#ffffff;" vertex="1" parent="WIyWlLk6GJQsqaUBKTNV-1">
          <mxGeometry x="-790" y="2290" width="140" height="40" as="geometry" />
        </mxCell>
        <mxCell id="uDHeOtieZX1u9QHMOAet-287" value="&amp;lt;&amp;lt;Boundary&amp;gt;&amp;gt;&lt;div&gt;ModificaQuotaButton&lt;/div&gt;" style="swimlane;fontStyle=0;childLayout=stackLayout;horizontal=1;startSize=30;horizontalStack=0;resizeParent=1;resizeParentMax=0;resizeLast=0;collapsible=1;marginBottom=0;whiteSpace=wrap;html=1;fontSize=12;verticalAlign=middle;fillColor=#1ba1e2;strokeColor=#006EAF;fillStyle=auto;fontColor=#ffffff;" vertex="1" parent="WIyWlLk6GJQsqaUBKTNV-1">
          <mxGeometry x="-790" y="2350" width="140" height="40" as="geometry" />
        </mxCell>
        <mxCell id="uDHeOtieZX1u9QHMOAet-288" value="&amp;lt;&amp;lt;Boundary&amp;gt;&amp;gt;&lt;div&gt;ModificaQuotaForm&lt;/div&gt;" style="swimlane;fontStyle=0;childLayout=stackLayout;horizontal=1;startSize=30;horizontalStack=0;resizeParent=1;resizeParentMax=0;resizeLast=0;collapsible=1;marginBottom=0;whiteSpace=wrap;html=1;fontSize=12;verticalAlign=middle;fillColor=#1ba1e2;strokeColor=#006EAF;fillStyle=auto;fontColor=#ffffff;" vertex="1" parent="WIyWlLk6GJQsqaUBKTNV-1">
          <mxGeometry x="-790" y="2430" width="140" height="40" as="geometry" />
        </mxCell>
        <mxCell id="uDHeOtieZX1u9QHMOAet-289" value="&amp;lt;&amp;lt;Boundary&amp;gt;&amp;gt;&lt;div&gt;EliminaQuotaButton&lt;/div&gt;" style="swimlane;fontStyle=0;childLayout=stackLayout;horizontal=1;startSize=30;horizontalStack=0;resizeParent=1;resizeParentMax=0;resizeLast=0;collapsible=1;marginBottom=0;whiteSpace=wrap;html=1;fontSize=12;verticalAlign=middle;fillColor=#1ba1e2;strokeColor=#006EAF;fillStyle=auto;fontColor=#ffffff;" vertex="1" parent="WIyWlLk6GJQsqaUBKTNV-1">
          <mxGeometry x="-790" y="2510" width="140" height="40" as="geometry" />
        </mxCell>
        <mxCell id="uDHeOtieZX1u9QHMOAet-290" value="&amp;lt;&amp;lt;Control&amp;gt;&amp;gt;&lt;div&gt;CreazioneQuotaControl&lt;/div&gt;" style="swimlane;fontStyle=0;childLayout=stackLayout;horizontal=1;startSize=30;horizontalStack=0;resizeParent=1;resizeParentMax=0;resizeLast=0;collapsible=1;marginBottom=0;whiteSpace=wrap;html=1;fontSize=12;verticalAlign=middle;fillColor=#1ba1e2;strokeColor=#006EAF;fontColor=#ffffff;" vertex="1" parent="WIyWlLk6GJQsqaUBKTNV-1">
          <mxGeometry x="-570" y="2250" width="140" height="60" as="geometry" />
        </mxCell>
        <mxCell id="uDHeOtieZX1u9QHMOAet-291" value="+CreaQuota()" style="text;html=1;align=left;verticalAlign=middle;whiteSpace=wrap;rounded=0;fillColor=#dae8fc;strokeColor=#6c8ebf;" vertex="1" parent="uDHeOtieZX1u9QHMOAet-290">
          <mxGeometry y="30" width="140" height="30" as="geometry" />
        </mxCell>
        <mxCell id="uDHeOtieZX1u9QHMOAet-292" value="&amp;lt;&amp;lt;Control&amp;gt;&amp;gt;&lt;div&gt;ModificaQuotaControl&lt;/div&gt;" style="swimlane;fontStyle=0;childLayout=stackLayout;horizontal=1;startSize=30;horizontalStack=0;resizeParent=1;resizeParentMax=0;resizeLast=0;collapsible=1;marginBottom=0;whiteSpace=wrap;html=1;fontSize=12;verticalAlign=middle;fillColor=#1ba1e2;strokeColor=#006EAF;fontColor=#ffffff;" vertex="1" parent="WIyWlLk6GJQsqaUBKTNV-1">
          <mxGeometry x="-568.5" y="2380" width="140" height="60" as="geometry" />
        </mxCell>
        <mxCell id="uDHeOtieZX1u9QHMOAet-293" value="+ModificaQuota()" style="text;html=1;align=left;verticalAlign=middle;whiteSpace=wrap;rounded=0;fillColor=#dae8fc;strokeColor=#6c8ebf;" vertex="1" parent="uDHeOtieZX1u9QHMOAet-292">
          <mxGeometry y="30" width="140" height="30" as="geometry" />
        </mxCell>
        <mxCell id="uDHeOtieZX1u9QHMOAet-294" value="&amp;lt;&amp;lt;Control&amp;gt;&amp;gt;&lt;div&gt;EliminaQuotaControl&lt;/div&gt;" style="swimlane;fontStyle=0;childLayout=stackLayout;horizontal=1;startSize=30;horizontalStack=0;resizeParent=1;resizeParentMax=0;resizeLast=0;collapsible=1;marginBottom=0;whiteSpace=wrap;html=1;fontSize=12;verticalAlign=middle;fillColor=#1ba1e2;strokeColor=#006EAF;fontColor=#ffffff;" vertex="1" parent="WIyWlLk6GJQsqaUBKTNV-1">
          <mxGeometry x="-568.5" y="2500" width="140" height="60" as="geometry">
            <mxRectangle x="-568.5" y="2500" width="150" height="40" as="alternateBounds" />
          </mxGeometry>
        </mxCell>
        <mxCell id="uDHeOtieZX1u9QHMOAet-295" value="+EliminaQuota()" style="text;html=1;align=left;verticalAlign=middle;whiteSpace=wrap;rounded=0;fillColor=#dae8fc;strokeColor=#6c8ebf;" vertex="1" parent="uDHeOtieZX1u9QHMOAet-294">
          <mxGeometry y="30" width="140" height="30" as="geometry" />
        </mxCell>
        <mxCell id="uDHeOtieZX1u9QHMOAet-296" value="" style="endArrow=none;html=1;rounded=0;exitX=1;exitY=0.5;exitDx=0;exitDy=0;entryX=0;entryY=0.5;entryDx=0;entryDy=0;" edge="1" parent="WIyWlLk6GJQsqaUBKTNV-1" source="uDHeOtieZX1u9QHMOAet-289" target="uDHeOtieZX1u9QHMOAet-294">
          <mxGeometry width="50" height="50" relative="1" as="geometry">
            <mxPoint x="-610" y="2510" as="sourcePoint" />
            <mxPoint x="-560" y="2460" as="targetPoint" />
          </mxGeometry>
        </mxCell>
        <mxCell id="uDHeOtieZX1u9QHMOAet-297" value="" style="endArrow=none;html=1;rounded=0;exitX=1;exitY=0.5;exitDx=0;exitDy=0;" edge="1" parent="WIyWlLk6GJQsqaUBKTNV-1" source="uDHeOtieZX1u9QHMOAet-288">
          <mxGeometry width="50" height="50" relative="1" as="geometry">
            <mxPoint x="-610" y="2450" as="sourcePoint" />
            <mxPoint x="-600" y="2450" as="targetPoint" />
          </mxGeometry>
        </mxCell>
        <mxCell id="uDHeOtieZX1u9QHMOAet-298" value="" style="endArrow=none;html=1;rounded=0;exitX=1;exitY=0.5;exitDx=0;exitDy=0;" edge="1" parent="WIyWlLk6GJQsqaUBKTNV-1" source="uDHeOtieZX1u9QHMOAet-287">
          <mxGeometry width="50" height="50" relative="1" as="geometry">
            <mxPoint x="-640" y="2410" as="sourcePoint" />
            <mxPoint x="-600" y="2370" as="targetPoint" />
          </mxGeometry>
        </mxCell>
        <mxCell id="uDHeOtieZX1u9QHMOAet-299" value="" style="endArrow=none;html=1;rounded=0;" edge="1" parent="WIyWlLk6GJQsqaUBKTNV-1">
          <mxGeometry width="50" height="50" relative="1" as="geometry">
            <mxPoint x="-600" y="2450" as="sourcePoint" />
            <mxPoint x="-600" y="2370" as="targetPoint" />
          </mxGeometry>
        </mxCell>
        <mxCell id="uDHeOtieZX1u9QHMOAet-300" value="" style="endArrow=none;html=1;rounded=0;entryX=0;entryY=0.5;entryDx=0;entryDy=0;" edge="1" parent="WIyWlLk6GJQsqaUBKTNV-1" target="uDHeOtieZX1u9QHMOAet-292">
          <mxGeometry width="50" height="50" relative="1" as="geometry">
            <mxPoint x="-600" y="2410" as="sourcePoint" />
            <mxPoint x="-530" y="2390" as="targetPoint" />
          </mxGeometry>
        </mxCell>
        <mxCell id="uDHeOtieZX1u9QHMOAet-301" value="" style="endArrow=none;html=1;rounded=0;exitX=1;exitY=0.5;exitDx=0;exitDy=0;" edge="1" parent="WIyWlLk6GJQsqaUBKTNV-1" source="uDHeOtieZX1u9QHMOAet-286">
          <mxGeometry width="50" height="50" relative="1" as="geometry">
            <mxPoint x="-610" y="2330" as="sourcePoint" />
            <mxPoint x="-600" y="2310" as="targetPoint" />
          </mxGeometry>
        </mxCell>
        <mxCell id="uDHeOtieZX1u9QHMOAet-302" value="" style="endArrow=none;html=1;rounded=0;exitX=1;exitY=0.5;exitDx=0;exitDy=0;" edge="1" parent="WIyWlLk6GJQsqaUBKTNV-1" source="uDHeOtieZX1u9QHMOAet-248">
          <mxGeometry width="50" height="50" relative="1" as="geometry">
            <mxPoint x="-640" y="2250" as="sourcePoint" />
            <mxPoint x="-600" y="2240" as="targetPoint" />
          </mxGeometry>
        </mxCell>
        <mxCell id="uDHeOtieZX1u9QHMOAet-303" value="" style="endArrow=none;html=1;rounded=0;" edge="1" parent="WIyWlLk6GJQsqaUBKTNV-1">
          <mxGeometry width="50" height="50" relative="1" as="geometry">
            <mxPoint x="-600" y="2240" as="sourcePoint" />
            <mxPoint x="-600" y="2310" as="targetPoint" />
          </mxGeometry>
        </mxCell>
        <mxCell id="uDHeOtieZX1u9QHMOAet-304" value="" style="endArrow=none;html=1;rounded=0;entryX=0;entryY=0.5;entryDx=0;entryDy=0;" edge="1" parent="WIyWlLk6GJQsqaUBKTNV-1" target="uDHeOtieZX1u9QHMOAet-290">
          <mxGeometry width="50" height="50" relative="1" as="geometry">
            <mxPoint x="-600" y="2280" as="sourcePoint" />
            <mxPoint x="-550" y="2210" as="targetPoint" />
          </mxGeometry>
        </mxCell>
        <mxCell id="uDHeOtieZX1u9QHMOAet-305" value="Quota" style="swimlane;fontStyle=0;childLayout=stackLayout;horizontal=1;startSize=30;horizontalStack=0;resizeParent=1;resizeParentMax=0;resizeLast=0;collapsible=1;marginBottom=0;whiteSpace=wrap;html=1;fontSize=12;verticalAlign=middle;fillColor=#1ba1e2;strokeColor=#006EAF;fontColor=#ffffff;" vertex="1" parent="WIyWlLk6GJQsqaUBKTNV-1">
          <mxGeometry x="-80" y="2335" width="140" height="150" as="geometry" />
        </mxCell>
        <mxCell id="uDHeOtieZX1u9QHMOAet-306" value="Moltiplicatore" style="text;html=1;align=left;verticalAlign=middle;whiteSpace=wrap;rounded=0;fillColor=#dae8fc;strokeColor=#6c8ebf;" vertex="1" parent="uDHeOtieZX1u9QHMOAet-305">
          <mxGeometry y="30" width="140" height="30" as="geometry" />
        </mxCell>
        <mxCell id="uDHeOtieZX1u9QHMOAet-308" value="Referto" style="text;html=1;align=left;verticalAlign=middle;whiteSpace=wrap;rounded=0;fillColor=#dae8fc;strokeColor=#6c8ebf;" vertex="1" parent="uDHeOtieZX1u9QHMOAet-305">
          <mxGeometry y="60" width="140" height="30" as="geometry" />
        </mxCell>
        <mxCell id="uDHeOtieZX1u9QHMOAet-309" value="Esito Referto" style="text;html=1;align=left;verticalAlign=middle;whiteSpace=wrap;rounded=0;fillColor=#dae8fc;strokeColor=#6c8ebf;" vertex="1" parent="uDHeOtieZX1u9QHMOAet-305">
          <mxGeometry y="90" width="140" height="30" as="geometry" />
        </mxCell>
        <mxCell id="uDHeOtieZX1u9QHMOAet-310" value="Stato" style="text;html=1;align=left;verticalAlign=middle;whiteSpace=wrap;rounded=0;fillColor=#dae8fc;strokeColor=#6c8ebf;" vertex="1" parent="uDHeOtieZX1u9QHMOAet-305">
          <mxGeometry y="120" width="140" height="30" as="geometry" />
        </mxCell>
        <mxCell id="uDHeOtieZX1u9QHMOAet-311" value="" style="endArrow=none;html=1;rounded=0;exitX=1;exitY=0.5;exitDx=0;exitDy=0;" edge="1" parent="WIyWlLk6GJQsqaUBKTNV-1" source="uDHeOtieZX1u9QHMOAet-290">
          <mxGeometry width="50" height="50" relative="1" as="geometry">
            <mxPoint x="-370" y="2310" as="sourcePoint" />
            <mxPoint x="-380" y="2280" as="targetPoint" />
          </mxGeometry>
        </mxCell>
        <mxCell id="uDHeOtieZX1u9QHMOAet-312" value="" style="endArrow=none;html=1;rounded=0;exitX=1;exitY=0.5;exitDx=0;exitDy=0;" edge="1" parent="WIyWlLk6GJQsqaUBKTNV-1" source="uDHeOtieZX1u9QHMOAet-292">
          <mxGeometry width="50" height="50" relative="1" as="geometry">
            <mxPoint x="-400" y="2430" as="sourcePoint" />
            <mxPoint x="-360" y="2410" as="targetPoint" />
          </mxGeometry>
        </mxCell>
        <mxCell id="uDHeOtieZX1u9QHMOAet-313" value="" style="endArrow=none;html=1;rounded=0;exitX=1;exitY=0;exitDx=0;exitDy=0;" edge="1" parent="WIyWlLk6GJQsqaUBKTNV-1" source="uDHeOtieZX1u9QHMOAet-295">
          <mxGeometry width="50" height="50" relative="1" as="geometry">
            <mxPoint x="-350" y="2520" as="sourcePoint" />
            <mxPoint x="-170" y="2530" as="targetPoint" />
          </mxGeometry>
        </mxCell>
        <mxCell id="uDHeOtieZX1u9QHMOAet-314" value="" style="endArrow=none;html=1;rounded=0;" edge="1" parent="WIyWlLk6GJQsqaUBKTNV-1">
          <mxGeometry width="50" height="50" relative="1" as="geometry">
            <mxPoint x="-170.48000000000002" y="2280" as="sourcePoint" />
            <mxPoint x="-170.48000000000002" y="2530" as="targetPoint" />
          </mxGeometry>
        </mxCell>
        <mxCell id="uDHeOtieZX1u9QHMOAet-315" value="" style="endArrow=none;html=1;rounded=0;entryX=0;entryY=0.5;entryDx=0;entryDy=0;" edge="1" parent="WIyWlLk6GJQsqaUBKTNV-1" target="uDHeOtieZX1u9QHMOAet-305">
          <mxGeometry width="50" height="50" relative="1" as="geometry">
            <mxPoint x="-360" y="2410" as="sourcePoint" />
            <mxPoint x="-300" y="2410" as="targetPoint" />
          </mxGeometry>
        </mxCell>
        <mxCell id="rpvnRNlC3QTQo9N79t-F-0" value="&amp;lt;&amp;lt;Control&amp;gt;&amp;gt;&lt;div&gt;AggiungiQuotaControl&lt;/div&gt;" style="swimlane;fontStyle=0;childLayout=stackLayout;horizontal=1;startSize=30;horizontalStack=0;resizeParent=1;resizeParentMax=0;resizeLast=0;collapsible=1;marginBottom=0;whiteSpace=wrap;html=1;fontSize=12;verticalAlign=middle;fillColor=#1ba1e2;strokeColor=#006EAF;fontColor=#ffffff;" vertex="1" parent="WIyWlLk6GJQsqaUBKTNV-1">
          <mxGeometry x="-380" y="2250" width="140" height="60" as="geometry" />
        </mxCell>
        <mxCell id="rpvnRNlC3QTQo9N79t-F-1" value="+AggiungiQuota()" style="text;html=1;align=left;verticalAlign=middle;whiteSpace=wrap;rounded=0;fillColor=#dae8fc;strokeColor=#6c8ebf;" vertex="1" parent="rpvnRNlC3QTQo9N79t-F-0">
          <mxGeometry y="30" width="140" height="30" as="geometry" />
        </mxCell>
        <mxCell id="rpvnRNlC3QTQo9N79t-F-2" value="" style="endArrow=none;html=1;rounded=0;exitX=1;exitY=0;exitDx=0;exitDy=0;" edge="1" parent="WIyWlLk6GJQsqaUBKTNV-1" source="rpvnRNlC3QTQo9N79t-F-1">
          <mxGeometry width="50" height="50" relative="1" as="geometry">
            <mxPoint x="-210" y="2240" as="sourcePoint" />
            <mxPoint x="-170" y="2280" as="targetPoint" />
          </mxGeometry>
        </mxCell>
        <mxCell id="rpvnRNlC3QTQo9N79t-F-3" value="&amp;lt;&amp;lt;Boundary&amp;gt;&amp;gt;&lt;div&gt;CreaPremioForm&lt;/div&gt;" style="swimlane;fontStyle=0;childLayout=stackLayout;horizontal=1;startSize=30;horizontalStack=0;resizeParent=1;resizeParentMax=0;resizeLast=0;collapsible=1;marginBottom=0;whiteSpace=wrap;html=1;fontSize=12;verticalAlign=middle;fillColor=#1ba1e2;strokeColor=#006EAF;fillStyle=auto;fontColor=#ffffff;" vertex="1" parent="WIyWlLk6GJQsqaUBKTNV-1">
          <mxGeometry x="-790" y="2660" width="140" height="40" as="geometry" />
        </mxCell>
        <mxCell id="rpvnRNlC3QTQo9N79t-F-4" value="&amp;lt;&amp;lt;Boundary&amp;gt;&amp;gt;&lt;div&gt;CreaPremioButton&lt;/div&gt;" style="swimlane;fontStyle=0;childLayout=stackLayout;horizontal=1;startSize=30;horizontalStack=0;resizeParent=1;resizeParentMax=0;resizeLast=0;collapsible=1;marginBottom=0;whiteSpace=wrap;html=1;fontSize=12;verticalAlign=middle;fillColor=#1ba1e2;strokeColor=#006EAF;fillStyle=auto;fontColor=#ffffff;" vertex="1" parent="WIyWlLk6GJQsqaUBKTNV-1">
          <mxGeometry x="-790" y="2730" width="140" height="40" as="geometry" />
        </mxCell>
        <mxCell id="rpvnRNlC3QTQo9N79t-F-5" value="&amp;lt;&amp;lt;Boundary&amp;gt;&amp;gt;&lt;div&gt;ModificaPremioButton&lt;/div&gt;" style="swimlane;fontStyle=0;childLayout=stackLayout;horizontal=1;startSize=30;horizontalStack=0;resizeParent=1;resizeParentMax=0;resizeLast=0;collapsible=1;marginBottom=0;whiteSpace=wrap;html=1;fontSize=12;verticalAlign=middle;fillColor=#1ba1e2;strokeColor=#006EAF;fillStyle=auto;fontColor=#ffffff;" vertex="1" parent="WIyWlLk6GJQsqaUBKTNV-1">
          <mxGeometry x="-790" y="2802" width="140" height="40" as="geometry" />
        </mxCell>
        <mxCell id="rpvnRNlC3QTQo9N79t-F-6" value="&amp;lt;&amp;lt;Boundary&amp;gt;&amp;gt;&lt;div&gt;ModificaPremioForm&lt;/div&gt;" style="swimlane;fontStyle=0;childLayout=stackLayout;horizontal=1;startSize=30;horizontalStack=0;resizeParent=1;resizeParentMax=0;resizeLast=0;collapsible=1;marginBottom=0;whiteSpace=wrap;html=1;fontSize=12;verticalAlign=middle;fillColor=#1ba1e2;strokeColor=#006EAF;fillStyle=auto;fontColor=#ffffff;" vertex="1" parent="WIyWlLk6GJQsqaUBKTNV-1">
          <mxGeometry x="-790" y="2882" width="140" height="40" as="geometry" />
        </mxCell>
        <mxCell id="rpvnRNlC3QTQo9N79t-F-7" value="&amp;lt;&amp;lt;Boundary&amp;gt;&amp;gt;&lt;div&gt;EliminaPrenioButton&lt;/div&gt;" style="swimlane;fontStyle=0;childLayout=stackLayout;horizontal=1;startSize=30;horizontalStack=0;resizeParent=1;resizeParentMax=0;resizeLast=0;collapsible=1;marginBottom=0;whiteSpace=wrap;html=1;fontSize=12;verticalAlign=middle;fillColor=#1ba1e2;strokeColor=#006EAF;fillStyle=auto;fontColor=#ffffff;" vertex="1" parent="WIyWlLk6GJQsqaUBKTNV-1">
          <mxGeometry x="-790" y="2950" width="140" height="40" as="geometry" />
        </mxCell>
        <mxCell id="rpvnRNlC3QTQo9N79t-F-20" value="&amp;lt;&amp;lt;Control&amp;gt;&amp;gt;&lt;div&gt;CreazionePremioControl&lt;/div&gt;" style="swimlane;fontStyle=0;childLayout=stackLayout;horizontal=1;startSize=30;horizontalStack=0;resizeParent=1;resizeParentMax=0;resizeLast=0;collapsible=1;marginBottom=0;whiteSpace=wrap;html=1;fontSize=12;verticalAlign=middle;fillColor=#1ba1e2;strokeColor=#006EAF;fontColor=#ffffff;" vertex="1" parent="WIyWlLk6GJQsqaUBKTNV-1">
          <mxGeometry x="-568.5" y="2680" width="140" height="60" as="geometry" />
        </mxCell>
        <mxCell id="rpvnRNlC3QTQo9N79t-F-21" value="+CreaPremio()" style="text;html=1;align=left;verticalAlign=middle;whiteSpace=wrap;rounded=0;fillColor=#dae8fc;strokeColor=#6c8ebf;" vertex="1" parent="rpvnRNlC3QTQo9N79t-F-20">
          <mxGeometry y="30" width="140" height="30" as="geometry" />
        </mxCell>
        <mxCell id="rpvnRNlC3QTQo9N79t-F-22" value="&amp;lt;&amp;lt;Control&amp;gt;&amp;gt;&lt;div&gt;ModificaPremioControl&lt;/div&gt;" style="swimlane;fontStyle=0;childLayout=stackLayout;horizontal=1;startSize=30;horizontalStack=0;resizeParent=1;resizeParentMax=0;resizeLast=0;collapsible=1;marginBottom=0;whiteSpace=wrap;html=1;fontSize=12;verticalAlign=middle;fillColor=#1ba1e2;strokeColor=#006EAF;fontColor=#ffffff;" vertex="1" parent="WIyWlLk6GJQsqaUBKTNV-1">
          <mxGeometry x="-568.5" y="2822" width="140" height="60" as="geometry" />
        </mxCell>
        <mxCell id="rpvnRNlC3QTQo9N79t-F-23" value="+ModificaPremio()" style="text;html=1;align=left;verticalAlign=middle;whiteSpace=wrap;rounded=0;fillColor=#dae8fc;strokeColor=#6c8ebf;" vertex="1" parent="rpvnRNlC3QTQo9N79t-F-22">
          <mxGeometry y="30" width="140" height="30" as="geometry" />
        </mxCell>
        <mxCell id="rpvnRNlC3QTQo9N79t-F-24" value="&amp;lt;&amp;lt;Control&amp;gt;&amp;gt;&lt;div&gt;EliminaPremioControl&lt;/div&gt;" style="swimlane;fontStyle=0;childLayout=stackLayout;horizontal=1;startSize=30;horizontalStack=0;resizeParent=1;resizeParentMax=0;resizeLast=0;collapsible=1;marginBottom=0;whiteSpace=wrap;html=1;fontSize=12;verticalAlign=middle;fillColor=#1ba1e2;strokeColor=#006EAF;fontColor=#ffffff;" vertex="1" parent="WIyWlLk6GJQsqaUBKTNV-1">
          <mxGeometry x="-568.5" y="2940" width="140" height="60" as="geometry">
            <mxRectangle x="-568.5" y="2500" width="150" height="40" as="alternateBounds" />
          </mxGeometry>
        </mxCell>
        <mxCell id="rpvnRNlC3QTQo9N79t-F-25" value="+EliminaPremio()" style="text;html=1;align=left;verticalAlign=middle;whiteSpace=wrap;rounded=0;fillColor=#dae8fc;strokeColor=#6c8ebf;" vertex="1" parent="rpvnRNlC3QTQo9N79t-F-24">
          <mxGeometry y="30" width="140" height="30" as="geometry" />
        </mxCell>
        <mxCell id="rpvnRNlC3QTQo9N79t-F-26" value="&amp;lt;&amp;lt;Control&amp;gt;&amp;gt;&lt;div&gt;AggiungiPremioControl&lt;/div&gt;" style="swimlane;fontStyle=0;childLayout=stackLayout;horizontal=1;startSize=30;horizontalStack=0;resizeParent=1;resizeParentMax=0;resizeLast=0;collapsible=1;marginBottom=0;whiteSpace=wrap;html=1;fontSize=12;verticalAlign=middle;fillColor=#1ba1e2;strokeColor=#006EAF;fontColor=#ffffff;" vertex="1" parent="WIyWlLk6GJQsqaUBKTNV-1">
          <mxGeometry x="-380" y="2680" width="140" height="60" as="geometry" />
        </mxCell>
        <mxCell id="rpvnRNlC3QTQo9N79t-F-27" value="+AggiungiPremio()" style="text;html=1;align=left;verticalAlign=middle;whiteSpace=wrap;rounded=0;fillColor=#dae8fc;strokeColor=#6c8ebf;" vertex="1" parent="rpvnRNlC3QTQo9N79t-F-26">
          <mxGeometry y="30" width="140" height="30" as="geometry" />
        </mxCell>
        <mxCell id="rpvnRNlC3QTQo9N79t-F-28" value="Premio" style="swimlane;fontStyle=0;childLayout=stackLayout;horizontal=1;startSize=30;horizontalStack=0;resizeParent=1;resizeParentMax=0;resizeLast=0;collapsible=1;marginBottom=0;whiteSpace=wrap;html=1;fontSize=12;verticalAlign=middle;fillColor=#1ba1e2;strokeColor=#006EAF;fontColor=#ffffff;" vertex="1" parent="WIyWlLk6GJQsqaUBKTNV-1">
          <mxGeometry x="-170" y="2777" width="140" height="120" as="geometry" />
        </mxCell>
        <mxCell id="rpvnRNlC3QTQo9N79t-F-29" value="Tipo" style="text;html=1;align=left;verticalAlign=middle;whiteSpace=wrap;rounded=0;fillColor=#dae8fc;strokeColor=#6c8ebf;" vertex="1" parent="rpvnRNlC3QTQo9N79t-F-28">
          <mxGeometry y="30" width="140" height="30" as="geometry" />
        </mxCell>
        <mxCell id="rpvnRNlC3QTQo9N79t-F-30" value="Costo" style="text;html=1;align=left;verticalAlign=middle;whiteSpace=wrap;rounded=0;fillColor=#dae8fc;strokeColor=#6c8ebf;" vertex="1" parent="rpvnRNlC3QTQo9N79t-F-28">
          <mxGeometry y="60" width="140" height="30" as="geometry" />
        </mxCell>
        <mxCell id="rpvnRNlC3QTQo9N79t-F-31" value="Descrizione" style="text;html=1;align=left;verticalAlign=middle;whiteSpace=wrap;rounded=0;fillColor=#dae8fc;strokeColor=#6c8ebf;" vertex="1" parent="rpvnRNlC3QTQo9N79t-F-28">
          <mxGeometry y="90" width="140" height="30" as="geometry" />
        </mxCell>
        <mxCell id="rpvnRNlC3QTQo9N79t-F-33" value="" style="endArrow=none;html=1;rounded=0;exitX=1;exitY=0.5;exitDx=0;exitDy=0;" edge="1" parent="WIyWlLk6GJQsqaUBKTNV-1" source="rpvnRNlC3QTQo9N79t-F-3">
          <mxGeometry width="50" height="50" relative="1" as="geometry">
            <mxPoint x="-620" y="2690" as="sourcePoint" />
            <mxPoint x="-600" y="2680" as="targetPoint" />
          </mxGeometry>
        </mxCell>
        <mxCell id="rpvnRNlC3QTQo9N79t-F-34" value="" style="endArrow=none;html=1;rounded=0;" edge="1" parent="WIyWlLk6GJQsqaUBKTNV-1">
          <mxGeometry width="50" height="50" relative="1" as="geometry">
            <mxPoint x="-600" y="2680" as="sourcePoint" />
            <mxPoint x="-600" y="2750" as="targetPoint" />
          </mxGeometry>
        </mxCell>
        <mxCell id="rpvnRNlC3QTQo9N79t-F-35" value="" style="endArrow=none;html=1;rounded=0;exitX=1;exitY=0.5;exitDx=0;exitDy=0;" edge="1" parent="WIyWlLk6GJQsqaUBKTNV-1" source="rpvnRNlC3QTQo9N79t-F-4">
          <mxGeometry width="50" height="50" relative="1" as="geometry">
            <mxPoint x="-630" y="2800" as="sourcePoint" />
            <mxPoint x="-600" y="2750" as="targetPoint" />
          </mxGeometry>
        </mxCell>
        <mxCell id="rpvnRNlC3QTQo9N79t-F-36" value="" style="endArrow=none;html=1;rounded=0;exitX=1;exitY=0.5;exitDx=0;exitDy=0;" edge="1" parent="WIyWlLk6GJQsqaUBKTNV-1" source="rpvnRNlC3QTQo9N79t-F-5">
          <mxGeometry width="50" height="50" relative="1" as="geometry">
            <mxPoint x="-610" y="2830" as="sourcePoint" />
            <mxPoint x="-600" y="2822" as="targetPoint" />
          </mxGeometry>
        </mxCell>
        <mxCell id="rpvnRNlC3QTQo9N79t-F-37" value="" style="endArrow=none;html=1;rounded=0;exitX=1;exitY=0.5;exitDx=0;exitDy=0;" edge="1" parent="WIyWlLk6GJQsqaUBKTNV-1" source="rpvnRNlC3QTQo9N79t-F-6">
          <mxGeometry width="50" height="50" relative="1" as="geometry">
            <mxPoint x="-620" y="2900" as="sourcePoint" />
            <mxPoint x="-600" y="2902" as="targetPoint" />
          </mxGeometry>
        </mxCell>
        <mxCell id="rpvnRNlC3QTQo9N79t-F-38" value="" style="endArrow=none;html=1;rounded=0;" edge="1" parent="WIyWlLk6GJQsqaUBKTNV-1">
          <mxGeometry width="50" height="50" relative="1" as="geometry">
            <mxPoint x="-600" y="2902" as="sourcePoint" />
            <mxPoint x="-600" y="2822" as="targetPoint" />
          </mxGeometry>
        </mxCell>
        <mxCell id="rpvnRNlC3QTQo9N79t-F-40" value="" style="endArrow=none;html=1;rounded=0;exitX=1;exitY=0.5;exitDx=0;exitDy=0;entryX=0;entryY=0;entryDx=0;entryDy=0;" edge="1" parent="WIyWlLk6GJQsqaUBKTNV-1" source="rpvnRNlC3QTQo9N79t-F-7" target="rpvnRNlC3QTQo9N79t-F-25">
          <mxGeometry width="50" height="50" relative="1" as="geometry">
            <mxPoint x="-610" y="3020" as="sourcePoint" />
            <mxPoint x="-570" y="2971" as="targetPoint" />
          </mxGeometry>
        </mxCell>
        <mxCell id="rpvnRNlC3QTQo9N79t-F-41" value="" style="endArrow=none;html=1;rounded=0;entryX=0;entryY=0.25;entryDx=0;entryDy=0;" edge="1" parent="WIyWlLk6GJQsqaUBKTNV-1">
          <mxGeometry width="50" height="50" relative="1" as="geometry">
            <mxPoint x="-600" y="2852.25" as="sourcePoint" />
            <mxPoint x="-568.5" y="2851.75" as="targetPoint" />
            <Array as="points">
              <mxPoint x="-590" y="2852.25" />
            </Array>
          </mxGeometry>
        </mxCell>
        <mxCell id="rpvnRNlC3QTQo9N79t-F-43" value="" style="endArrow=none;html=1;rounded=0;exitX=1;exitY=0;exitDx=0;exitDy=0;" edge="1" parent="WIyWlLk6GJQsqaUBKTNV-1" source="rpvnRNlC3QTQo9N79t-F-25">
          <mxGeometry width="50" height="50" relative="1" as="geometry">
            <mxPoint x="-240" y="3000" as="sourcePoint" />
            <mxPoint x="-200" y="2970" as="targetPoint" />
          </mxGeometry>
        </mxCell>
        <mxCell id="rpvnRNlC3QTQo9N79t-F-44" value="" style="endArrow=none;html=1;rounded=0;" edge="1" parent="WIyWlLk6GJQsqaUBKTNV-1">
          <mxGeometry width="50" height="50" relative="1" as="geometry">
            <mxPoint x="-200" y="2970" as="sourcePoint" />
            <mxPoint x="-200" y="2710" as="targetPoint" />
          </mxGeometry>
        </mxCell>
        <mxCell id="rpvnRNlC3QTQo9N79t-F-45" value="" style="endArrow=none;html=1;rounded=0;exitX=1;exitY=0.5;exitDx=0;exitDy=0;entryX=0;entryY=0;entryDx=0;entryDy=0;" edge="1" parent="WIyWlLk6GJQsqaUBKTNV-1" source="rpvnRNlC3QTQo9N79t-F-20" target="rpvnRNlC3QTQo9N79t-F-27">
          <mxGeometry width="50" height="50" relative="1" as="geometry">
            <mxPoint x="-370" y="2780" as="sourcePoint" />
            <mxPoint x="-320" y="2730" as="targetPoint" />
          </mxGeometry>
        </mxCell>
        <mxCell id="rpvnRNlC3QTQo9N79t-F-46" value="" style="endArrow=none;html=1;rounded=0;exitX=1;exitY=0;exitDx=0;exitDy=0;entryX=-0.016;entryY=0.433;entryDx=0;entryDy=0;entryPerimeter=0;" edge="1" parent="WIyWlLk6GJQsqaUBKTNV-1" source="rpvnRNlC3QTQo9N79t-F-23" target="rpvnRNlC3QTQo9N79t-F-30">
          <mxGeometry width="50" height="50" relative="1" as="geometry">
            <mxPoint x="-400" y="2890" as="sourcePoint" />
            <mxPoint x="-350" y="2840" as="targetPoint" />
          </mxGeometry>
        </mxCell>
        <mxCell id="rpvnRNlC3QTQo9N79t-F-47" value="" style="endArrow=none;html=1;rounded=0;exitX=1;exitY=0;exitDx=0;exitDy=0;" edge="1" parent="WIyWlLk6GJQsqaUBKTNV-1" source="rpvnRNlC3QTQo9N79t-F-27">
          <mxGeometry width="50" height="50" relative="1" as="geometry">
            <mxPoint x="-250" y="2720" as="sourcePoint" />
            <mxPoint x="-200" y="2710" as="targetPoint" />
          </mxGeometry>
        </mxCell>
        <mxCell id="rpvnRNlC3QTQo9N79t-F-48" value="" style="endArrow=none;html=1;rounded=0;entryX=0;entryY=0;entryDx=0;entryDy=0;" edge="1" parent="WIyWlLk6GJQsqaUBKTNV-1" target="rpvnRNlC3QTQo9N79t-F-21">
          <mxGeometry width="50" height="50" relative="1" as="geometry">
            <mxPoint x="-600" y="2710" as="sourcePoint" />
            <mxPoint x="-550" y="2780" as="targetPoint" />
          </mxGeometry>
        </mxCell>
        <mxCell id="rpvnRNlC3QTQo9N79t-F-49" value="&amp;lt;&amp;lt;Boundary&amp;gt;&amp;gt;&lt;div&gt;CreaPremioButton&lt;/div&gt;" style="swimlane;fontStyle=0;childLayout=stackLayout;horizontal=1;startSize=30;horizontalStack=0;resizeParent=1;resizeParentMax=0;resizeLast=0;collapsible=1;marginBottom=0;whiteSpace=wrap;html=1;fontSize=12;verticalAlign=middle;fillColor=#1ba1e2;strokeColor=#006EAF;fillStyle=auto;fontColor=#ffffff;" vertex="1" parent="WIyWlLk6GJQsqaUBKTNV-1">
          <mxGeometry x="-790" y="3180" width="140" height="40" as="geometry" />
        </mxCell>
        <mxCell id="rpvnRNlC3QTQo9N79t-F-50" value="&amp;lt;&amp;lt;Control&amp;gt;&amp;gt;&lt;div&gt;CreazionePremioControl&lt;/div&gt;" style="swimlane;fontStyle=0;childLayout=stackLayout;horizontal=1;startSize=30;horizontalStack=0;resizeParent=1;resizeParentMax=0;resizeLast=0;collapsible=1;marginBottom=0;whiteSpace=wrap;html=1;fontSize=12;verticalAlign=middle;fillColor=#1ba1e2;strokeColor=#006EAF;fontColor=#ffffff;" vertex="1" parent="WIyWlLk6GJQsqaUBKTNV-1">
          <mxGeometry x="-570" y="3170" width="140" height="60" as="geometry" />
        </mxCell>
        <mxCell id="rpvnRNlC3QTQo9N79t-F-51" value="+CreaPremio()" style="text;html=1;align=left;verticalAlign=middle;whiteSpace=wrap;rounded=0;fillColor=#dae8fc;strokeColor=#6c8ebf;" vertex="1" parent="rpvnRNlC3QTQo9N79t-F-50">
          <mxGeometry y="30" width="140" height="30" as="geometry" />
        </mxCell>
        <mxCell id="rpvnRNlC3QTQo9N79t-F-52" value="Premio" style="swimlane;fontStyle=0;childLayout=stackLayout;horizontal=1;startSize=30;horizontalStack=0;resizeParent=1;resizeParentMax=0;resizeLast=0;collapsible=1;marginBottom=0;whiteSpace=wrap;html=1;fontSize=12;verticalAlign=middle;fillColor=#1ba1e2;strokeColor=#006EAF;fontColor=#ffffff;" vertex="1" parent="WIyWlLk6GJQsqaUBKTNV-1">
          <mxGeometry x="-340" y="3060" width="140" height="120" as="geometry" />
        </mxCell>
        <mxCell id="rpvnRNlC3QTQo9N79t-F-53" value="Tipo" style="text;html=1;align=left;verticalAlign=middle;whiteSpace=wrap;rounded=0;fillColor=#dae8fc;strokeColor=#6c8ebf;" vertex="1" parent="rpvnRNlC3QTQo9N79t-F-52">
          <mxGeometry y="30" width="140" height="30" as="geometry" />
        </mxCell>
        <mxCell id="rpvnRNlC3QTQo9N79t-F-54" value="Costo" style="text;html=1;align=left;verticalAlign=middle;whiteSpace=wrap;rounded=0;fillColor=#dae8fc;strokeColor=#6c8ebf;" vertex="1" parent="rpvnRNlC3QTQo9N79t-F-52">
          <mxGeometry y="60" width="140" height="30" as="geometry" />
        </mxCell>
        <mxCell id="rpvnRNlC3QTQo9N79t-F-55" value="Descrizione" style="text;html=1;align=left;verticalAlign=middle;whiteSpace=wrap;rounded=0;fillColor=#dae8fc;strokeColor=#6c8ebf;" vertex="1" parent="rpvnRNlC3QTQo9N79t-F-52">
          <mxGeometry y="90" width="140" height="30" as="geometry" />
        </mxCell>
        <mxCell id="rpvnRNlC3QTQo9N79t-F-56" value="Saldo Premio" style="swimlane;fontStyle=0;childLayout=stackLayout;horizontal=1;startSize=30;horizontalStack=0;resizeParent=1;resizeParentMax=0;resizeLast=0;collapsible=1;marginBottom=0;whiteSpace=wrap;html=1;fontSize=12;verticalAlign=middle;fillColor=#1ba1e2;strokeColor=#006EAF;fontColor=#ffffff;" vertex="1" parent="WIyWlLk6GJQsqaUBKTNV-1">
          <mxGeometry x="-340" y="3250" width="140" height="90" as="geometry" />
        </mxCell>
        <mxCell id="rpvnRNlC3QTQo9N79t-F-57" value="Saldo" style="text;html=1;align=left;verticalAlign=middle;whiteSpace=wrap;rounded=0;fillColor=#dae8fc;strokeColor=#6c8ebf;" vertex="1" parent="rpvnRNlC3QTQo9N79t-F-56">
          <mxGeometry y="30" width="140" height="30" as="geometry" />
        </mxCell>
        <mxCell id="rpvnRNlC3QTQo9N79t-F-58" value="Storico Transazioni" style="text;html=1;align=left;verticalAlign=middle;whiteSpace=wrap;rounded=0;fillColor=#dae8fc;strokeColor=#6c8ebf;" vertex="1" parent="rpvnRNlC3QTQo9N79t-F-56">
          <mxGeometry y="60" width="140" height="30" as="geometry" />
        </mxCell>
        <mxCell id="rpvnRNlC3QTQo9N79t-F-60" value="" style="endArrow=none;html=1;rounded=0;exitX=1;exitY=0.75;exitDx=0;exitDy=0;entryX=0;entryY=0.5;entryDx=0;entryDy=0;" edge="1" parent="WIyWlLk6GJQsqaUBKTNV-1" target="rpvnRNlC3QTQo9N79t-F-50">
          <mxGeometry width="50" height="50" relative="1" as="geometry">
            <mxPoint x="-650" y="3200" as="sourcePoint" />
            <mxPoint x="-570" y="3190" as="targetPoint" />
          </mxGeometry>
        </mxCell>
        <mxCell id="rpvnRNlC3QTQo9N79t-F-64" value="" style="endArrow=none;html=1;rounded=0;" edge="1" parent="WIyWlLk6GJQsqaUBKTNV-1">
          <mxGeometry width="50" height="50" relative="1" as="geometry">
            <mxPoint x="-380" y="3310" as="sourcePoint" />
            <mxPoint x="-340" y="3310" as="targetPoint" />
          </mxGeometry>
        </mxCell>
        <mxCell id="rpvnRNlC3QTQo9N79t-F-65" value="" style="endArrow=none;html=1;rounded=0;" edge="1" parent="WIyWlLk6GJQsqaUBKTNV-1">
          <mxGeometry width="50" height="50" relative="1" as="geometry">
            <mxPoint x="-380" y="3310" as="sourcePoint" />
            <mxPoint x="-380" y="3120" as="targetPoint" />
          </mxGeometry>
        </mxCell>
        <mxCell id="rpvnRNlC3QTQo9N79t-F-66" value="" style="endArrow=none;html=1;rounded=0;entryX=0;entryY=0;entryDx=0;entryDy=0;" edge="1" parent="WIyWlLk6GJQsqaUBKTNV-1" target="rpvnRNlC3QTQo9N79t-F-54">
          <mxGeometry width="50" height="50" relative="1" as="geometry">
            <mxPoint x="-380" y="3120" as="sourcePoint" />
            <mxPoint x="-370" y="3080" as="targetPoint" />
          </mxGeometry>
        </mxCell>
        <mxCell id="rpvnRNlC3QTQo9N79t-F-67" value="" style="endArrow=none;html=1;rounded=0;exitX=1;exitY=0;exitDx=0;exitDy=0;" edge="1" parent="WIyWlLk6GJQsqaUBKTNV-1" source="rpvnRNlC3QTQo9N79t-F-51">
          <mxGeometry width="50" height="50" relative="1" as="geometry">
            <mxPoint x="-410" y="3230" as="sourcePoint" />
            <mxPoint x="-380" y="3200" as="targetPoint" />
          </mxGeometry>
        </mxCell>
      </root>
    </mxGraphModel>
  </diagram>
</mxfile>
